<?xml version="1.0" encoding="utf-8"?>
<!-- Generator: Adobe Illustrator 16.0.0, SVG Export Plug-In . SVG Version: 6.00 Build 0)  -->
<!DOCTYPE svg PUBLIC "-//W3C//DTD SVG 1.1//EN" "http://www.w3.org/Graphics/SVG/1.1/DTD/svg11.dtd">
<svg version="1.1" id="Layer_1" xmlns="http://www.w3.org/2000/svg" xmlns:xlink="http://www.w3.org/1999/xlink" x="0px" y="0px"
	 width="2267.721px" height="2267.719px" viewBox="0 0 2267.721 2267.719" enable-background="new 0 0 2267.721 2267.719"
	 xml:space="preserve">
<g>
	<g>
		<path fill="none" stroke="#000000" stroke-width="5" stroke-miterlimit="10" d="M544.528,1801.127V456.333
			c0-25.449,9.607-50.896,29.4-70.691c19.23-19.229,44.678-29.408,70.693-29.408h1095.406V1900.09"/>
		<path fill="none" stroke="#000000" stroke-width="5" stroke-miterlimit="10" d="M1738.337,1699.336L644.055,1701.6
			c-25.447,0-50.896,9.611-70.686,29.404c-19.234,19.23-29.41,44.68-29.41,70.693l0,0c0,25.449,9.615,50.9,29.41,70.693
			c19.225,19.223,44.672,29.406,70.686,29.406h1098.801"/>
		
			<line fill="none" stroke="#000000" stroke-width="5" stroke-miterlimit="10" x1="644.059" y1="1801.127" x2="1738.337" y2="1802.254"/>
		<g>
			<path fill="none" stroke="#000000" stroke-width="5" stroke-miterlimit="10" d="M1291.573,1078.965"/>
			<path fill="none" stroke="#000000" stroke-width="5" stroke-miterlimit="10" d="M942.647,1078.965"/>
			<path fill="none" stroke="#000000" stroke-width="5" stroke-miterlimit="10" d="M1291.573,979.432"/>
			<path fill="none" stroke="#000000" stroke-width="5" stroke-miterlimit="10" d="M942.647,979.432"/>
			<path fill="none" stroke="#000000" stroke-width="5" stroke-miterlimit="10" d="M1291.573,879.903"/>
			<path fill="none" stroke="#000000" stroke-width="5" stroke-miterlimit="10" d="M1067.065,879.903"/>
		</g>
		<polyline fill="none" stroke="#000000" stroke-width="5" stroke-miterlimit="10" points="1639.932,1605.456 1639.932,456.333 
			818.235,456.333 818.235,1602.065 1639.932,1600.944 		"/>
		
			<line fill="none" stroke="#000000" stroke-width="5" stroke-miterlimit="10" x1="718.704" y1="1701.6" x2="718.704" y2="356.801"/>
	</g>
</g>
<rect x="816.54" y="455.2" width="823.393" height="1145.736"/>
<g enable-background="new    ">
	<path fill="#FFFFFF" d="M903.36,783.653h-34.805V652.491c-12.717,11.893-27.701,20.686-44.957,26.381v-31.584
		c9.084-2.973,18.947-8.607,29.598-16.908c10.654-8.299,17.965-17.977,21.928-29.047h28.24v182.32H903.36z"/>
	<path fill="#FFFFFF" d="M955.874,736.961l34.68-3.59c0.99,7.842,3.918,14.055,8.791,18.639c4.867,4.582,10.486,6.873,16.848,6.873
		c7.266,0,13.414-2.951,18.449-8.857c5.037-5.9,7.557-14.801,7.557-26.691c0-11.148-2.498-19.508-7.492-25.08
		c-5-5.574-11.5-8.359-19.512-8.359c-9.99,0-18.949,4.42-26.875,13.25l-28.24-4.084l17.834-94.502h92.023v32.572h-65.643
		l-5.451,30.842c7.764-3.879,15.689-5.822,23.783-5.822c15.441,0,28.529,5.617,39.262,16.846s16.102,25.807,16.102,43.719
		c0,14.945-4.334,28.281-13.006,40.008c-11.809,16.02-28.195,24.025-49.17,24.025c-16.762,0-30.43-4.498-40.998-13.5
		C964.257,764.25,957.936,752.155,955.874,736.961z"/>
	<path fill="#FFFFFF" d="M1214.362,646.545l-33.688,3.715c-0.828-6.934-2.973-12.053-6.438-15.359
		c-3.471-3.301-7.973-4.953-13.502-4.953c-7.354,0-13.563,3.301-18.639,9.906c-5.08,6.607-8.279,20.352-9.6,41.244
		c8.668-10.238,19.443-15.359,32.328-15.359c14.529,0,26.979,5.531,37.34,16.598c10.365,11.066,15.549,25.35,15.549,42.854
		c0,18.578-5.455,33.486-16.354,44.713c-10.9,11.23-24.893,16.846-41.986,16.846c-18.332,0-33.402-7.121-45.209-21.367
		c-11.805-14.242-17.705-37.59-17.705-70.041c0-33.273,6.148-57.262,18.449-71.959c12.303-14.695,28.277-22.049,47.932-22.049
		c13.789,0,25.205,3.861,34.248,11.582C1206.124,620.641,1211.887,631.852,1214.362,646.545z M1135.464,722.469
		c0,11.313,2.605,20.043,7.805,26.197c5.203,6.152,11.152,9.227,17.836,9.227c6.438,0,11.803-2.52,16.102-7.555
		c4.289-5.035,6.434-13.297,6.434-24.773c0-11.807-2.309-20.455-6.932-25.945c-4.627-5.492-10.402-8.234-17.342-8.234
		c-6.689,0-12.346,2.623-16.969,7.865C1137.772,704.495,1135.464,712.231,1135.464,722.469z"/>
	<path fill="#FFFFFF" d="M1244.708,783.653v-181.57h54.861l32.949,123.855l32.572-123.855h54.996v181.57h-34.066v-142.93
		l-36.037,142.93h-35.299l-35.918-142.93v142.93H1244.708L1244.708,783.653z"/>
	<path fill="#FFFFFF" d="M1456.012,783.653v-181.57h54.861l32.945,123.855l32.576-123.855h54.992v181.57h-34.063v-142.93
		l-36.041,142.93h-35.295l-35.918-142.93v142.93H1456.012L1456.012,783.653z"/>
</g>
<g enable-background="new    ">
	<path fill="#FFFFFF" d="M1106.649,1087.903l62.051-94.75l-56.229-86.82h42.854l36.412,58.338l35.67-58.338h42.482l-56.477,88.188
		l62.051,93.387h-44.217l-40.252-62.795l-40.379,62.795h-43.967V1087.903z"/>
</g>
<g enable-background="new    ">
	<path fill="#FFFFFF" d="M931.846,1359.823v32.322H809.848c1.324-12.217,5.289-23.795,11.891-34.742
		c6.605-10.939,19.652-25.449,39.143-43.537c15.686-14.613,25.301-24.521,28.855-29.725c4.791-7.184,7.186-14.279,7.186-21.293
		c0-7.764-2.086-13.73-6.254-17.902c-4.174-4.17-9.93-6.256-17.277-6.256c-7.266,0-13.053,2.189-17.342,6.568
		c-4.293,4.379-6.771,11.645-7.43,21.797l-34.682-3.465c2.063-19.156,8.547-32.908,19.445-41.244
		c10.898-8.342,24.525-12.514,40.871-12.514c17.918,0,31.996,4.832,42.238,14.488c10.232,9.664,15.355,21.672,15.355,36.041
		c0,8.178-1.465,15.957-4.396,23.35c-2.928,7.391-7.574,15.133-13.932,23.223c-4.211,5.365-11.811,13.084-22.791,23.164
		c-10.982,10.078-17.939,16.758-20.867,20.061c-2.932,3.303-5.303,6.523-7.125,9.664H931.846z"/>
	<path fill="#FFFFFF" d="M954.141,1343.969l33.684-4.09c1.072,8.594,3.963,15.156,8.668,19.697
		c4.711,4.543,10.406,6.814,17.094,6.814c7.188,0,13.232-2.725,18.146-8.172c4.91-5.455,7.365-12.803,7.365-22.051
		c0-8.75-2.348-15.682-7.057-20.811c-4.707-5.113-10.447-7.674-17.217-7.674c-4.459,0-9.785,0.859-15.979,2.598l3.842-28.367
		c9.418,0.252,16.598-1.789,21.557-6.131c4.953-4.334,7.426-10.086,7.426-17.277c0-6.102-1.816-10.977-5.449-14.613
		c-3.637-3.631-8.465-5.449-14.486-5.449c-5.949,0-11.025,2.064-15.242,6.191c-4.207,4.133-6.768,10.16-7.678,18.086l-32.076-5.455
		c2.227-10.977,5.592-19.75,10.094-26.318c4.498-6.568,10.771-11.727,18.824-15.48c8.051-3.756,17.068-5.635,27.061-5.635
		c17.098,0,30.797,5.449,41.121,16.352c8.502,8.914,12.754,18.992,12.754,30.221c0,15.936-8.713,28.648-26.131,38.148
		c10.404,2.227,18.721,7.223,24.955,14.979c6.234,7.77,9.352,17.145,9.352,28.121c0,15.936-5.822,29.523-17.467,40.746
		c-11.639,11.229-26.133,16.848-43.471,16.848c-16.432,0-30.059-4.729-40.875-14.184
		C962.149,1371.608,955.874,1359.243,954.141,1343.969z"/>
	<path fill="#FFFFFF" d="M1164.7,1392.145v-36.539h-74.32v-30.467l78.773-115.307h29.227v115.182h22.545v30.592h-22.545v36.539
		H1164.7z M1164.7,1325.014v-62.047l-41.74,62.047H1164.7z"/>
	<path fill="#FFFFFF" d="M1244.708,1392.145v-181.57h54.861l32.949,123.857l32.572-123.857h54.996v181.57h-34.066v-142.924
		l-36.037,142.924h-35.299l-35.918-142.924v142.924H1244.708z"/>
	<path fill="#FFFFFF" d="M1456.012,1392.145v-181.57h54.861l32.945,123.857l32.576-123.857h54.992v181.57h-34.063v-142.924
		l-36.041,142.924h-35.295l-35.918-142.924v142.924H1456.012z"/>
</g>
<circle fill="none" stroke="#000000" stroke-width="5" stroke-miterlimit="10" cx="1134.358" cy="1134.384" r="1097.101"/>
</svg>
