<?xml version="1.0" encoding="utf-8"?>
<!-- Generator: Adobe Illustrator 16.0.0, SVG Export Plug-In . SVG Version: 6.00 Build 0)  -->
<!DOCTYPE svg PUBLIC "-//W3C//DTD SVG 1.1//EN" "http://www.w3.org/Graphics/SVG/1.1/DTD/svg11.dtd">
<svg version="1.1" id="Layer_1" xmlns="http://www.w3.org/2000/svg" xmlns:xlink="http://www.w3.org/1999/xlink" x="0px" y="0px"
	 width="1700.79px" height="1700.79px" viewBox="0 0 1700.79 1700.79" enable-background="new 0 0 1700.79 1700.79"
	 xml:space="preserve">
<g>
	<g>
		<path fill="none" stroke="#010101" stroke-width="5" stroke-miterlimit="10" d="M400.979,1357.936V333.99
			c0-19.378,7.318-38.755,22.39-53.827c14.64-14.64,34.016-22.392,53.824-22.392h834.055v1175.515"/>
		<path fill="none" stroke="#010101" stroke-width="5" stroke-miterlimit="10" d="M1309.962,1280.431l-833.2,1.721
			c-19.374,0-38.754,7.32-53.823,22.393c-14.642,14.638-22.393,34.015-22.393,53.824l0,0c0,19.373,7.321,38.755,22.393,53.826
			c14.643,14.641,34.015,22.391,53.823,22.391h836.64"/>
		
			<line fill="none" stroke="#010101" stroke-width="5" stroke-miterlimit="10" x1="476.765" y1="1357.936" x2="1309.962" y2="1358.796"/>
		<g>
			<path fill="none" stroke="#010101" stroke-width="5" stroke-miterlimit="10" d="M969.788,808.069"/>
			<path fill="none" stroke="#010101" stroke-width="5" stroke-miterlimit="10" d="M704.114,808.069"/>
			<path fill="none" stroke="#010101" stroke-width="5" stroke-miterlimit="10" d="M969.788,732.284"/>
			<path fill="none" stroke="#010101" stroke-width="5" stroke-miterlimit="10" d="M704.114,732.284"/>
			<path fill="none" stroke="#010101" stroke-width="5" stroke-miterlimit="10" d="M969.788,656.501"/>
			<path fill="none" stroke="#010101" stroke-width="5" stroke-miterlimit="10" d="M798.846,656.501"/>
		</g>
		<polyline fill="none" stroke="#010101" stroke-width="5" stroke-miterlimit="10" points="1235.036,1208.949 1235.036,333.99 
			609.386,333.99 609.386,1206.366 1235.036,1205.51 		"/>
		
			<line fill="none" stroke="#010101" stroke-width="5" stroke-miterlimit="10" x1="533.599" y1="1282.151" x2="533.599" y2="258.206"/>
	</g>
</g>
<rect x="608.093" y="333.126" fill="#010101" width="626.943" height="872.383"/>
<g enable-background="new    ">
	<path fill="#FFFFFF" d="M695.887,558.604v24.614h-92.888c1.008-9.303,4.025-18.12,9.053-26.454
		c5.03-8.33,14.963-19.38,29.803-33.15c11.942-11.127,19.267-18.673,21.971-22.635c3.647-5.468,5.474-10.875,5.474-16.219
		c0-5.908-1.59-10.453-4.764-13.625c-3.176-3.175-7.56-4.764-13.155-4.764c-5.533,0-9.936,1.666-13.204,4.998
		s-5.153,8.865-5.655,16.599l-26.406-2.642c1.57-14.586,6.503-25.054,14.803-31.405c8.299-6.347,18.674-9.525,31.121-9.525
		c13.645,0,24.364,3.678,32.16,11.032c7.793,7.355,11.691,16.506,11.691,27.445c0,6.223-1.115,12.151-3.348,17.775
		c-2.23,5.629-5.764,11.523-10.607,17.683c-3.203,4.088-8.99,9.965-17.352,17.635c-8.363,7.671-13.66,12.766-15.888,15.277
		c-2.235,2.517-4.04,4.968-5.425,7.354h52.616V558.604z"/>
	<path fill="#FFFFFF" d="M781.611,583.216H755.11v-99.868c-9.683,9.054-21.093,15.749-34.227,20.087v-24.049
		c6.912-2.266,14.423-6.555,22.531-12.874c8.117-6.319,13.68-13.689,16.697-22.118h21.503v138.822H781.611z"/>
	<path fill="#FFFFFF" d="M866.016,444.396c13.39,0,23.859,4.78,31.405,14.337c8.986,11.317,13.486,30.082,13.486,56.301
		c0,26.155-4.526,44.954-13.582,56.393c-7.479,9.431-17.915,14.147-31.309,14.147c-13.451,0-24.295-5.171-32.533-15.515
		c-8.238-10.342-12.355-28.778-12.355-55.311c0-26.029,4.524-44.763,13.577-56.205C842.187,449.114,852.624,444.396,866.016,444.396
		z M866.016,466.372c-3.205,0-6.069,1.021-8.583,3.065s-4.463,5.704-5.848,10.986c-1.826,6.853-2.734,18.386-2.734,34.606
		s0.817,27.366,2.455,33.434c1.632,6.066,3.688,10.105,6.179,12.117c2.479,2.011,5.326,3.018,8.531,3.018s6.065-1.021,8.579-3.066
		c2.518-2.044,4.465-5.707,5.85-10.986c1.822-6.791,2.736-18.295,2.736-34.518c0-16.221-0.822-27.363-2.455-33.432
		c-1.635-6.066-3.694-10.12-6.178-12.166C872.067,467.394,869.221,466.372,866.016,466.372z"/>
	<path fill="#FFFFFF" d="M934.106,583.216V444.963h41.773l25.086,94.308l24.8-94.308h41.877v138.253h-25.938V474.388l-27.44,108.828
		h-26.877l-27.351-108.828v108.828H934.106L934.106,583.216z"/>
	<path fill="#FFFFFF" d="M1094.994,583.216V444.963h41.774l25.086,94.308l24.801-94.308h41.873v138.253h-25.936V474.388
		l-27.442,108.828h-26.878l-27.345-108.828v108.828H1094.994L1094.994,583.216z"/>
</g>
<g enable-background="new    ">
	<path fill="#FFFFFF" d="M828.983,814.872l47.248-72.144l-42.815-66.108h32.63l27.727,44.418l27.16-44.418h32.346l-43.004,67.146
		l47.248,71.106h-33.668l-30.648-47.813l-30.744,47.813H828.983z"/>
</g>
<g enable-background="new    ">
	<path fill="#FFFFFF" d="M695.887,1021.917v24.613h-92.888c1.008-9.305,4.025-18.121,9.053-26.453
		c5.03-8.33,14.963-19.381,29.803-33.15c11.942-11.125,19.267-18.67,21.971-22.631c3.647-5.471,5.474-10.875,5.474-16.219
		c0-5.911-1.59-10.449-4.764-13.625c-3.176-3.179-7.56-4.766-13.155-4.766c-5.533,0-9.936,1.669-13.204,5.003
		c-3.269,3.331-5.153,8.864-5.655,16.594l-26.406-2.64c1.57-14.586,6.503-25.053,14.803-31.402
		c8.299-6.353,18.674-9.525,31.121-9.525c13.645,0,24.364,3.678,32.16,11.031c7.793,7.354,11.691,16.502,11.691,27.441
		c0,6.223-1.115,12.15-3.348,17.777c-2.23,5.627-5.764,11.521-10.607,17.682c-3.203,4.089-8.99,9.966-17.352,17.637
		c-8.363,7.675-13.66,12.764-15.888,15.279c-2.235,2.514-4.04,4.965-5.425,7.354H695.887z"/>
	<path fill="#FFFFFF" d="M714.376,1014.563l25.646-2.834c0.631,5.22,2.265,9.09,4.902,11.602c2.643,2.516,6.131,3.773,10.471,3.773
		c5.469,0,10.122-2.515,13.954-7.547c3.833-5.022,6.29-15.464,7.355-31.305c-6.664,7.734-14.993,11.6-24.99,11.6
		c-10.878,0-20.262-4.196-28.147-12.592c-7.896-8.392-11.836-19.316-11.836-32.77c0-14.021,4.161-25.32,12.491-33.902
		c8.333-8.587,18.939-12.873,31.829-12.873c14.021,0,25.523,5.423,34.518,16.269c8.988,10.843,13.483,28.685,13.483,53.519
		c0,25.271-4.682,43.507-14.05,54.693c-9.366,11.191-21.563,16.786-36.59,16.786c-10.811,0-19.553-2.874-26.215-8.626
		C720.534,1034.601,716.256,1026.009,714.376,1014.563z M774.351,956.661c0-8.551-1.968-15.186-5.895-19.9
		c-3.931-4.713-8.473-7.074-13.627-7.074c-4.906,0-8.976,1.934-12.213,5.801c-3.237,3.866-4.857,10.203-4.857,19.004
		c0,8.928,1.758,15.483,5.279,19.662c3.522,4.18,7.923,6.273,13.203,6.273c5.092,0,9.383-2.012,12.871-6.037
		C772.608,970.364,774.351,964.452,774.351,956.661z"/>
	<path fill="#FFFFFF" d="M821.224,934.78v-24.615h90.624v19.236c-7.482,7.356-15.089,17.918-22.822,31.685
		c-7.733,13.771-13.628,28.401-17.681,43.904c-4.053,15.498-6.055,29.345-5.984,41.537h-25.559
		c0.434-19.108,4.385-38.602,11.834-58.47c7.451-19.865,17.398-37.627,29.849-53.28h-60.261V934.78z"/>
	<path fill="#FFFFFF" d="M934.106,1046.53V908.278h41.773l25.086,94.31l24.8-94.31h41.877v138.252h-25.938V937.701l-27.44,108.829
		h-26.877l-27.351-108.829v108.829H934.106z"/>
	<path fill="#FFFFFF" d="M1094.994,1046.53V908.278h41.774l25.086,94.31l24.801-94.31h41.873v138.252h-25.936V937.701
		l-27.442,108.829h-26.878l-27.345-108.829v108.829H1094.994z"/>
</g>
<circle fill="none" stroke="#010101" stroke-width="5" stroke-miterlimit="10" cx="850.083" cy="850.267" r="835.348"/>
</svg>
