<?xml version="1.0" encoding="utf-8"?>
<!-- Generator: Adobe Illustrator 16.0.0, SVG Export Plug-In . SVG Version: 6.00 Build 0)  -->
<!DOCTYPE svg PUBLIC "-//W3C//DTD SVG 1.1//EN" "http://www.w3.org/Graphics/SVG/1.1/DTD/svg11.dtd">
<svg version="1.1" id="Layer_1" xmlns="http://www.w3.org/2000/svg" xmlns:xlink="http://www.w3.org/1999/xlink" x="0px" y="0px"
	 width="2267.721px" height="2267.719px" viewBox="0 0 2267.721 2267.719" enable-background="new 0 0 2267.721 2267.719"
	 xml:space="preserve">
<g>
	<g>
		<path fill="none" stroke="#000000" stroke-width="5" stroke-miterlimit="10" d="M548.327,1803.528V458.735
			c0-25.449,9.605-50.898,29.398-70.691c19.234-19.229,44.676-29.41,70.697-29.41h1095.406v1543.857"/>
		<path fill="none" stroke="#000000" stroke-width="5" stroke-miterlimit="10" d="M1742.139,1701.737L647.854,1704
			c-25.445,0-50.895,9.611-70.686,29.406c-19.236,19.23-29.408,44.68-29.408,70.693l0,0c0,25.449,9.615,50.898,29.408,70.693
			c19.227,19.23,44.672,29.404,70.686,29.404h1098.801"/>
		
			<line fill="none" stroke="#000000" stroke-width="5" stroke-miterlimit="10" x1="647.858" y1="1803.528" x2="1742.139" y2="1804.657"/>
		<g>
			<path fill="none" stroke="#000000" stroke-width="5" stroke-miterlimit="10" d="M1295.372,1081.368"/>
			<path fill="none" stroke="#000000" stroke-width="5" stroke-miterlimit="10" d="M946.448,1081.368"/>
			<path fill="none" stroke="#000000" stroke-width="5" stroke-miterlimit="10" d="M1295.372,981.834"/>
			<path fill="none" stroke="#000000" stroke-width="5" stroke-miterlimit="10" d="M946.448,981.834"/>
			<path fill="none" stroke="#000000" stroke-width="5" stroke-miterlimit="10" d="M1295.372,882.305"/>
			<path fill="none" stroke="#000000" stroke-width="5" stroke-miterlimit="10" d="M1070.864,882.305"/>
		</g>
		<polyline fill="none" stroke="#000000" stroke-width="5" stroke-miterlimit="10" points="1643.733,1607.858 1643.733,458.735 
			822.036,458.735 822.036,1604.465 1643.733,1603.346 		"/>
		<line fill="none" stroke="#000000" stroke-width="5" stroke-miterlimit="10" x1="722.505" y1="1704" x2="722.505" y2="359.204"/>
	</g>
</g>
<rect x="820.339" y="457.6" width="823.395" height="1145.738"/>
<g enable-background="new    ">
	<path fill="#FFFFFF" d="M935.645,753.731v32.326H813.649c1.328-12.215,5.291-23.797,11.889-34.742
		c6.605-10.941,19.658-25.453,39.146-43.537c15.688-14.613,25.299-24.523,28.857-29.727c4.791-7.184,7.184-14.283,7.184-21.303
		c0-7.76-2.086-13.727-6.252-17.895c-4.18-4.17-9.932-6.254-17.279-6.254c-7.266,0-13.055,2.188-17.34,6.563
		c-4.295,4.377-6.773,11.643-7.43,21.799l-34.684-3.469c2.064-19.156,8.547-32.902,19.445-41.246
		c10.9-8.336,24.525-12.51,40.873-12.51c17.916,0,31.996,4.83,42.238,14.49c10.227,9.66,15.355,21.676,15.355,36.045
		c0,8.172-1.467,15.959-4.398,23.346c-2.928,7.391-7.572,15.133-13.93,23.223c-4.209,5.369-11.809,13.086-22.793,23.16
		c-10.98,10.074-17.939,16.766-20.867,20.064c-2.928,3.307-5.303,6.523-7.125,9.66h69.113v0.006H935.645z"/>
	<path fill="#FFFFFF" d="M1048.231,786.053h-34.805v-131.16c-12.717,11.891-27.701,20.686-44.957,26.381v-31.586
		c9.088-2.973,18.947-8.607,29.598-16.906c10.654-8.301,17.969-17.979,21.932-29.047h28.24L1048.231,786.053L1048.231,786.053z"/>
	<path fill="#FFFFFF" d="M1159.081,603.737c17.59,0,31.336,6.277,41.248,18.83c11.801,14.863,17.711,39.508,17.711,73.941
		c0,34.352-5.945,59.041-17.834,74.064c-9.826,12.385-23.531,18.578-41.121,18.578c-17.664,0-31.906-6.789-42.729-20.375
		c-10.82-13.582-16.227-37.795-16.227-72.641c0-34.186,5.938-58.789,17.834-73.818
		C1127.794,609.932,1141.495,603.737,1159.081,603.737z M1159.081,632.6c-4.205,0-7.967,1.342-11.27,4.023
		c-3.303,2.686-5.863,7.492-7.678,14.428c-2.406,9.002-3.594,24.15-3.594,45.453s1.074,35.939,3.223,43.908
		c2.145,7.969,4.846,13.273,8.111,15.916c3.258,2.639,7.002,3.963,11.207,3.963c4.213,0,7.975-1.342,11.27-4.029
		c3.303-2.682,5.863-7.494,7.682-14.428c2.395-8.92,3.594-24.027,3.594-45.334c0-21.303-1.076-35.938-3.229-43.906
		c-2.143-7.967-4.848-13.293-8.113-15.98C1167.03,633.942,1163.294,632.6,1159.081,632.6z"/>
	<path fill="#FFFFFF" d="M1248.507,786.053v-181.57h54.863l32.953,123.857l32.566-123.857h55v181.57h-34.07V643.125l-36.033,142.928
		h-35.299l-35.918-142.928v142.928H1248.507L1248.507,786.053z"/>
	<path fill="#FFFFFF" d="M1459.815,786.053v-181.57h54.863l32.945,123.857l32.574-123.857h54.992v181.57h-34.063V643.125
		l-36.041,142.928h-35.291l-35.918-142.928v142.928H1459.815L1459.815,786.053z"/>
</g>
<g enable-background="new    ">
	<path fill="#FFFFFF" d="M1110.45,1090.305l62.049-94.75l-56.227-86.82h42.854l36.412,58.338l35.668-58.338h42.484l-56.477,88.186
		l62.049,93.389h-44.215l-40.252-62.795l-40.379,62.795L1110.45,1090.305L1110.45,1090.305z"/>
</g>
<g enable-background="new    ">
	<path fill="#FFFFFF" d="M935.645,1362.223v32.322H813.649c1.328-12.217,5.291-23.795,11.889-34.742
		c6.605-10.939,19.658-25.449,39.146-43.535c15.688-14.615,25.299-24.523,28.857-29.725c4.791-7.186,7.184-14.281,7.184-21.295
		c0-7.762-2.086-13.723-6.252-17.9c-4.18-4.172-9.932-6.258-17.279-6.258c-7.266,0-13.055,2.189-17.34,6.568
		c-4.295,4.379-6.773,11.646-7.43,21.799l-34.684-3.467c2.064-19.154,8.547-32.908,19.445-41.242
		c10.9-8.342,24.525-12.514,40.873-12.514c17.916,0,31.996,4.832,42.238,14.488c10.227,9.662,15.355,21.672,15.355,36.039
		c0,8.18-1.467,15.957-4.398,23.35c-2.928,7.393-7.572,15.133-13.93,23.223c-4.209,5.367-11.809,13.086-22.793,23.164
		c-10.98,10.08-17.939,16.76-20.867,20.063s-5.303,6.523-7.125,9.662H935.645z"/>
	<path fill="#FFFFFF" d="M1048.231,1394.545h-34.805v-131.158c-12.717,11.889-27.701,20.676-44.957,26.377v-31.588
		c9.088-2.969,18.947-8.609,29.598-16.906c10.654-8.299,17.969-17.969,21.932-29.043h28.24L1048.231,1394.545L1048.231,1394.545z"/>
	<path fill="#FFFFFF" d="M1159.081,1212.235c17.59,0,31.336,6.271,41.248,18.83c11.801,14.857,17.711,39.498,17.711,73.936
		c0,34.355-5.945,59.041-17.834,74.063c-9.826,12.395-23.531,18.586-41.121,18.586c-17.664,0-31.906-6.791-42.729-20.373
		c-10.82-13.582-16.227-37.801-16.227-72.646c0-34.186,5.938-58.789,17.834-73.818
		C1127.794,1218.432,1141.495,1212.235,1159.081,1212.235z M1159.081,1241.09c-4.205,0-7.967,1.352-11.27,4.031
		s-5.863,7.496-7.678,14.436c-2.406,8.994-3.594,24.143-3.594,45.451c0,21.301,1.074,35.943,3.223,43.908
		c2.145,7.971,4.846,13.277,8.111,15.92c3.258,2.635,7.002,3.963,11.207,3.963c4.213,0,7.975-1.352,11.27-4.029
		c3.303-2.688,5.863-7.496,7.682-14.43c2.395-8.92,3.594-24.031,3.594-45.332s-1.076-35.938-3.229-43.916
		c-2.143-7.971-4.848-13.291-8.113-15.979C1167.03,1242.434,1163.294,1241.09,1159.081,1241.09z"/>
	<path fill="#FFFFFF" d="M1248.507,1394.545v-181.568h54.863l32.953,123.863l32.566-123.863h55v181.568h-34.07v-142.922
		l-36.033,142.922h-35.299l-35.918-142.922v142.922H1248.507z"/>
	<path fill="#FFFFFF" d="M1459.815,1394.545v-181.568h54.863l32.945,123.863l32.574-123.863h54.992v181.568h-34.063v-142.922
		l-36.041,142.922h-35.291l-35.918-142.922v142.922H1459.815z"/>
</g>
<path fill="none" stroke="#000000" stroke-width="5" stroke-miterlimit="10" d="M1138.159,39.684
	c605.914,0,1097.102,491.191,1097.102,1097.1c0,605.914-491.188,1097.102-1097.102,1097.102S41.057,1742.698,41.057,1136.784
	C41.057,530.875,532.245,39.684,1138.159,39.684z"/>
<g>
	<g>
		<path fill="none" stroke="#000000" stroke-width="5" stroke-miterlimit="10" d="M540.727,1799.729V454.934
			c0-25.449,9.604-50.896,29.398-70.691c19.234-19.229,44.676-29.408,70.697-29.408h1095.404v1543.857"/>
		<path fill="none" stroke="#000000" stroke-width="5" stroke-miterlimit="10" d="M1734.54,1697.938l-1094.285,2.264
			c-25.445,0-50.895,9.611-70.686,29.404c-19.238,19.23-29.41,44.68-29.41,70.693l0,0c0,25.449,9.615,50.9,29.41,70.693
			c19.227,19.23,44.672,29.406,70.686,29.406h1098.801"/>
		
			<line fill="none" stroke="#000000" stroke-width="5" stroke-miterlimit="10" x1="640.259" y1="1799.729" x2="1734.54" y2="1800.856"/>
		<g>
			<path fill="none" stroke="#000000" stroke-width="5" stroke-miterlimit="10" d="M1287.772,1077.567"/>
			<path fill="none" stroke="#000000" stroke-width="5" stroke-miterlimit="10" d="M938.848,1077.567"/>
			<path fill="none" stroke="#000000" stroke-width="5" stroke-miterlimit="10" d="M1287.772,978.034"/>
			<path fill="none" stroke="#000000" stroke-width="5" stroke-miterlimit="10" d="M938.848,978.034"/>
			<path fill="none" stroke="#000000" stroke-width="5" stroke-miterlimit="10" d="M1287.772,878.504"/>
			<path fill="none" stroke="#000000" stroke-width="5" stroke-miterlimit="10" d="M1063.264,878.504"/>
		</g>
		<polyline fill="none" stroke="#000000" stroke-width="5" stroke-miterlimit="10" points="1636.134,1604.057 1636.134,454.934 
			814.434,454.934 814.434,1600.667 1636.134,1599.545 		"/>
		
			<line fill="none" stroke="#000000" stroke-width="5" stroke-miterlimit="10" x1="714.905" y1="1700.202" x2="714.905" y2="355.403"/>
	</g>
</g>
<rect x="812.739" y="453.801" width="823.395" height="1145.736"/>
<g enable-background="new    ">
	<path fill="#FFFFFF" d="M899.561,782.254h-34.807V651.092c-12.717,11.893-27.701,20.686-44.957,26.381v-31.584
		c9.088-2.973,18.947-8.607,29.598-16.908c10.654-8.299,17.969-17.977,21.932-29.047h28.24L899.561,782.254L899.561,782.254z"/>
	<path fill="#FFFFFF" d="M952.073,735.563l34.68-3.59c0.99,7.842,3.914,14.055,8.787,18.639c4.869,4.582,10.488,6.873,16.852,6.873
		c7.266,0,13.412-2.951,18.447-8.857c5.035-5.9,7.555-14.801,7.555-26.691c0-11.148-2.496-19.508-7.492-25.08
		c-4.998-5.574-11.5-8.359-19.516-8.359c-9.99,0-18.943,4.42-26.875,13.25l-28.24-4.084l17.836-94.502h92.023v32.572h-65.635
		l-5.451,30.842c7.762-3.879,15.689-5.822,23.783-5.822c15.441,0,28.533,5.617,39.262,16.846
		c10.73,11.229,16.102,25.807,16.102,43.719c0,14.945-4.334,28.281-13.008,40.008c-11.809,16.02-28.195,24.025-49.17,24.025
		c-16.762,0-30.43-4.498-40.998-13.5C960.46,762.852,954.137,750.756,952.073,735.563z"/>
	<path fill="#FFFFFF" d="M1210.188,749.932v32.326h-121.994c1.322-12.217,5.285-23.799,11.891-34.744
		c6.598-10.939,19.652-25.451,39.139-43.537c15.686-14.613,25.309-24.523,28.859-29.727c4.787-7.182,7.182-14.283,7.182-21.303
		c0-7.76-2.086-13.727-6.254-17.893c-4.17-4.17-9.93-6.256-17.277-6.256c-7.266,0-13.055,2.188-17.342,6.563
		c-4.293,4.377-6.76,11.643-7.428,21.801l-34.68-3.471c2.061-19.156,8.547-32.902,19.445-41.244
		c10.898-8.338,24.521-12.51,40.873-12.51c17.916,0,31.994,4.83,42.234,14.488c10.238,9.66,15.355,21.676,15.355,36.045
		c0,8.174-1.467,15.959-4.395,23.346c-2.928,7.393-7.574,15.133-13.934,23.223c-4.205,5.369-11.801,13.088-22.789,23.16
		c-10.984,10.076-17.943,16.766-20.863,20.064c-2.932,3.307-5.307,6.525-7.121,9.66h69.102v0.008H1210.188z"/>
	<path fill="#FFFFFF" d="M1240.907,782.254v-181.57h54.863l32.953,123.855l32.566-123.855h55v181.57h-34.07v-142.93l-36.033,142.93
		h-35.299l-35.918-142.93v142.93H1240.907L1240.907,782.254z"/>
	<path fill="#FFFFFF" d="M1452.216,782.254v-181.57h54.861l32.947,123.855l32.574-123.855h54.992v181.57h-34.063v-142.93
		l-36.041,142.93h-35.291l-35.918-142.93v142.93H1452.216L1452.216,782.254z"/>
</g>
<g enable-background="new    ">
	<path fill="#FFFFFF" d="M1102.848,1086.504l62.051-94.75l-56.227-86.82h42.854l36.41,58.338l35.67-58.338h42.482l-56.477,88.188
		l62.051,93.387h-44.215l-40.254-62.795l-40.377,62.795L1102.848,1086.504L1102.848,1086.504z"/>
</g>
<g enable-background="new    ">
	<path fill="#FFFFFF" d="M928.046,1358.424v32.322H806.048c1.33-12.217,5.293-23.795,11.891-34.742
		c6.605-10.939,19.656-25.449,39.146-43.537c15.686-14.613,25.297-24.521,28.857-29.725c4.789-7.184,7.184-14.279,7.184-21.293
		c0-7.764-2.086-13.723-6.254-17.902c-4.178-4.17-9.93-6.256-17.277-6.256c-7.266,0-13.055,2.189-17.342,6.568
		c-4.293,4.379-6.771,11.645-7.428,21.797l-34.684-3.465c2.064-19.156,8.547-32.908,19.445-41.244
		c10.898-8.342,24.525-12.514,40.873-12.514c17.916,0,31.996,4.832,42.238,14.488c10.227,9.664,15.355,21.672,15.355,36.041
		c0,8.178-1.467,15.957-4.398,23.35c-2.928,7.391-7.574,15.133-13.93,23.223c-4.209,5.365-11.809,13.084-22.793,23.164
		c-10.98,10.078-17.939,16.758-20.867,20.061s-5.303,6.523-7.125,9.664H928.046z"/>
	<path fill="#FFFFFF" d="M1069.116,1358.424v32.322H947.12c1.328-12.217,5.291-23.795,11.891-34.742
		c6.605-10.939,19.648-25.449,39.146-43.537c15.686-14.613,25.309-24.521,28.859-29.725c4.787-7.184,7.184-14.279,7.184-21.293
		c0-7.764-2.088-13.723-6.256-17.902c-4.172-4.17-9.93-6.256-17.277-6.256c-7.268,0-13.057,2.189-17.342,6.568
		c-4.293,4.379-6.773,11.645-7.43,21.797l-34.682-3.465c2.063-19.156,8.545-32.908,19.445-41.244
		c10.898-8.342,24.525-12.514,40.875-12.514c17.924,0,31.996,4.832,42.234,14.488c10.238,9.664,15.355,21.672,15.355,36.041
		c0,8.178-1.465,15.957-4.393,23.35c-2.928,7.391-7.574,15.133-13.936,23.223c-4.205,5.365-11.801,13.084-22.789,23.164
		c-10.984,10.078-17.941,16.758-20.869,20.061s-5.303,6.523-7.125,9.664H1069.116z"/>
	<path fill="#FFFFFF" d="M1093.393,1348.76l33.688-3.719c0.824,6.857,2.973,11.941,6.443,15.244
		c3.465,3.303,8.049,4.951,13.744,4.951c7.186,0,13.297-3.303,18.326-9.908c5.035-6.598,8.264-20.314,9.658-41.109
		c-8.75,10.152-19.689,15.229-32.818,15.229c-14.287,0-26.611-5.506-36.969-16.535c-10.373-11.021-15.553-25.375-15.553-43.039
		c0-18.414,5.471-33.25,16.414-44.523c10.939-11.281,24.873-16.908,41.799-16.908c18.414,0,33.521,7.125,45.334,21.367
		c11.805,14.244,17.707,37.674,17.707,70.285c0,33.191-6.148,57.143-18.445,71.83c-12.303,14.703-28.322,22.057-48.057,22.057
		c-14.207,0-25.684-3.777-34.434-11.332C1101.483,1375.079,1095.87,1363.797,1093.393,1348.76z M1172.165,1272.715
		c0-11.229-2.582-19.941-7.74-26.133c-5.162-6.189-11.129-9.291-17.898-9.291c-6.438,0-11.789,2.537-16.037,7.621
		c-4.254,5.078-6.387,13.396-6.387,24.953c0,11.727,2.311,20.336,6.936,25.828c4.623,5.492,10.404,8.238,17.34,8.238
		c6.688,0,12.32-2.643,16.9-7.934C1169.876,1290.713,1172.165,1282.95,1172.165,1272.715z"/>
	<path fill="#FFFFFF" d="M1240.907,1390.747v-181.57h54.863l32.953,123.865l32.566-123.865h55v181.57h-34.07v-142.924
		l-36.033,142.924h-35.299l-35.918-142.924v142.924H1240.907z"/>
	<path fill="#FFFFFF" d="M1452.216,1390.747v-181.57h54.861l32.947,123.865l32.574-123.865h54.992v181.57h-34.063v-142.924
		l-36.041,142.924h-35.291l-35.918-142.924v142.924H1452.216z"/>
</g>
<circle fill="none" stroke="#000000" stroke-width="5" stroke-miterlimit="10" cx="1130.559" cy="1132.986" r="1097.101"/>
</svg>
