<?xml version="1.0" encoding="utf-8"?>
<!-- Generator: Adobe Illustrator 16.0.0, SVG Export Plug-In . SVG Version: 6.00 Build 0)  -->
<!DOCTYPE svg PUBLIC "-//W3C//DTD SVG 1.1//EN" "http://www.w3.org/Graphics/SVG/1.1/DTD/svg11.dtd">
<svg version="1.1" id="Layer_1" xmlns="http://www.w3.org/2000/svg" xmlns:xlink="http://www.w3.org/1999/xlink" x="0px" y="0px"
	 width="2267.721px" height="2267.719px" viewBox="0 0 2267.721 2267.719" enable-background="new 0 0 2267.721 2267.719"
	 xml:space="preserve">
<g>
	<g>
		<path fill="none" stroke="#000000" stroke-width="5" stroke-miterlimit="10" d="M532.496,1814.724V442.504
			c0-25.969,9.803-51.934,30.003-72.133c19.624-19.62,45.588-30.01,72.136-30.01h1117.746v1575.344"/>
		<path fill="none" stroke="#000000" stroke-width="5" stroke-miterlimit="10" d="M1750.653,1710.858l-1116.599,2.311
			c-25.964,0-51.932,9.807-72.13,30.006c-19.626,19.62-30.005,45.591-30.005,72.133l0,0c0,25.972,9.81,51.939,30.005,72.136
			c19.62,19.617,45.586,30.007,72.13,30.007h1121.212"/>
		
			<line fill="none" stroke="#000000" stroke-width="5" stroke-miterlimit="10" x1="634.058" y1="1814.724" x2="1750.653" y2="1815.877"/>
		<g>
			<path fill="none" stroke="#000000" stroke-width="5" stroke-miterlimit="10" d="M1294.776,1077.834"/>
			<path fill="none" stroke="#000000" stroke-width="5" stroke-miterlimit="10" d="M938.737,1077.834"/>
			<path fill="none" stroke="#000000" stroke-width="5" stroke-miterlimit="10" d="M1294.776,976.273"/>
			<path fill="none" stroke="#000000" stroke-width="5" stroke-miterlimit="10" d="M938.737,976.273"/>
			<path fill="none" stroke="#000000" stroke-width="5" stroke-miterlimit="10" d="M1294.776,874.713"/>
			<path fill="none" stroke="#000000" stroke-width="5" stroke-miterlimit="10" d="M1065.69,874.713"/>
		</g>
		<polyline fill="none" stroke="#000000" stroke-width="5" stroke-miterlimit="10" points="1650.242,1615.064 1650.242,442.504 
			811.788,442.504 811.788,1611.603 1650.242,1610.459 		"/>
		
			<line fill="none" stroke="#000000" stroke-width="5" stroke-miterlimit="10" x1="710.225" y1="1713.168" x2="710.225" y2="340.945"/>
	</g>
</g>
<rect x="810.056" y="441.347" width="840.186" height="1169.105"/>
<g enable-background="new    ">
	<path fill="#FFFFFF" d="M898.647,776.5h-35.514V642.664c-12.977,12.136-28.269,21.108-45.873,26.919v-32.23
		c9.269-3.032,19.331-8.781,30.198-17.251c10.873-8.469,18.335-18.343,22.378-29.639h28.815V776.5H898.647z"/>
	<path fill="#FFFFFF" d="M1021.371,776.5v-37.28h-75.836v-31.092l80.38-117.662h29.822v117.536h23.003v31.218h-23.003v37.28
		H1021.371z M1021.371,708.002v-63.318l-42.596,63.318H1021.371z"/>
	<path fill="#FFFFFF" d="M1126.133,676.537c-9.183-3.874-15.859-9.207-20.03-15.987c-4.17-6.784-6.254-14.219-6.254-22.305
		c0-13.815,4.821-25.236,14.47-34.25c9.645-9.017,23.358-13.525,41.135-13.525c17.61,0,31.278,4.509,41.014,13.525
		c9.732,9.014,14.596,20.435,14.596,34.25c0,8.592-2.234,16.239-6.7,22.939c-4.467,6.699-10.745,11.814-18.827,15.355
		c10.271,4.129,18.092,10.155,23.441,18.069c5.35,7.918,8.029,17.064,8.029,27.429c0,17.103-5.457,31.008-16.376,41.704
		c-10.905,10.706-25.422,16.056-43.538,16.056c-16.85,0-30.88-4.425-42.088-13.269c-13.226-10.447-19.839-24.775-19.839-42.971
		c0-10.022,2.486-19.229,7.457-27.618C1107.59,687.555,1115.433,681.083,1126.133,676.537z M1130.176,720.136
		c0,9.774,2.508,17.398,7.522,22.874c5.015,5.479,11.271,8.215,18.767,8.215c7.33,0,13.396-2.63,18.197-7.896
		s7.203-12.871,7.203-22.813c0-8.676-2.446-15.649-7.332-20.915s-11.08-7.898-18.575-7.898c-8.678,0-15.146,2.99-19.4,8.975
		C1132.307,706.656,1130.176,713.143,1130.176,720.136z M1133.468,640.768c0,7.077,2,12.598,6.003,16.559
		c4,3.957,9.33,5.939,15.988,5.939c6.735,0,12.133-2.002,16.178-6.004c4.044-4.003,6.065-9.543,6.065-16.619
		c0-6.652-2.005-11.985-6.007-15.984c-4.003-4.003-9.288-6.004-15.86-6.004c-6.825,0-12.261,2.021-16.302,6.064
		C1135.487,628.764,1133.468,634.117,1133.468,640.768z"/>
	<path fill="#FFFFFF" d="M1246.957,776.5V591.226h55.979l33.623,126.383l33.234-126.383h56.119V776.5h-34.762V630.656
		L1354.381,776.5h-36.021l-36.65-145.845V776.5H1246.957L1246.957,776.5z"/>
	<path fill="#FFFFFF" d="M1462.572,776.5V591.226h55.979l33.618,126.383l33.239-126.383h56.112V776.5h-34.755V630.656
		L1569.989,776.5h-36.014l-36.65-145.845V776.5H1462.572L1462.572,776.5z"/>
</g>
<g enable-background="new    ">
	<path fill="#FFFFFF" d="M1106.084,1086.955l63.316-96.68l-57.376-88.594h43.727l37.155,59.528l36.396-59.528h43.352l-57.632,89.986
		l63.318,95.294h-45.117l-41.075-64.076l-41.201,64.076h-44.863V1086.955z"/>
</g>
<g enable-background="new    ">
	<path fill="#FFFFFF" d="M927.714,1364.419v32.983H803.229c1.354-12.465,5.396-24.279,12.132-35.452
		c6.739-11.163,20.056-25.969,39.941-44.425c16.008-14.911,25.818-25.021,29.446-30.331c4.888-7.328,7.329-14.57,7.329-21.728
		c0-7.921-2.127-14.009-6.379-18.266c-4.261-4.258-10.135-6.385-17.63-6.385c-7.417,0-13.32,2.233-17.697,6.703
		c-4.378,4.467-6.909,11.883-7.579,22.243l-35.392-3.538c2.105-19.546,8.721-33.58,19.843-42.085
		c11.12-8.511,25.027-12.769,41.708-12.769c18.278,0,32.646,4.931,43.096,14.782c10.441,9.861,15.673,22.114,15.673,36.777
		c0,8.347-1.5,16.284-4.49,23.825c-2.986,7.544-7.729,15.443-14.215,23.696c-4.297,5.476-12.053,13.352-23.259,23.638
		c-11.202,10.284-18.305,17.1-21.291,20.471c-2.99,3.367-5.412,6.654-7.271,9.858H927.714z"/>
	<path fill="#FFFFFF" d="M1042.597,1397.403h-35.517v-133.837c-12.974,12.134-28.267,21.108-45.875,26.916v-32.224
		c9.272-3.036,19.336-8.785,30.202-17.251c10.871-8.466,18.331-18.343,22.376-29.636h28.817v186.031H1042.597z"/>
	<path fill="#FFFFFF" d="M1155.706,1211.372c17.95,0,31.976,6.4,42.088,19.214c12.047,15.162,18.077,40.313,18.077,75.445
		c0,35.057-6.069,60.244-18.201,75.575c-10.027,12.646-24.009,18.962-41.959,18.962c-18.028,0-32.563-6.929-43.601-20.79
		c-11.041-13.857-16.559-38.568-16.559-74.127c0-34.882,6.063-59.986,18.199-75.323
		C1123.78,1217.698,1137.762,1211.372,1155.706,1211.372z M1155.706,1240.817c-4.292,0-8.13,1.38-11.498,4.112
		c-3.371,2.733-5.983,7.65-7.833,14.725c-2.454,9.185-3.668,24.641-3.668,46.384c0,21.736,1.096,36.671,3.287,44.805
		c2.188,8.134,4.946,13.541,8.278,16.235c3.323,2.697,7.142,4.045,11.434,4.045c4.299,0,8.134-1.37,11.503-4.112
		c3.366-2.733,5.981-7.641,7.838-14.722c2.442-9.097,3.663-24.515,3.663-46.258c0-21.736-1.099-36.67-3.29-44.805
		c-2.188-8.134-4.949-13.563-8.275-16.303C1163.818,1242.187,1160.005,1240.817,1155.706,1240.817z"/>
	<path fill="#FFFFFF" d="M1246.957,1397.403v-185.273h55.979l33.623,126.383l33.234-126.383h56.119v185.273h-34.762v-145.838
		l-36.771,145.838h-36.021l-36.65-145.838v145.838H1246.957z"/>
	<path fill="#FFFFFF" d="M1462.572,1397.403v-185.273h55.979l33.618,126.383l33.239-126.383h56.112v185.273h-34.755v-145.838
		l-36.777,145.838h-36.014l-36.65-145.838v145.838H1462.572z"/>
</g>
<path fill="none" stroke="#000000" stroke-width="5" stroke-miterlimit="10" d="M1134.357,14.909
	c618.272,0,1119.476,501.207,1119.476,1119.473c0,618.273-501.203,1119.477-1119.476,1119.477
	c-618.271,0-1119.478-501.203-1119.478-1119.477C14.879,516.116,516.086,14.909,1134.357,14.909z"/>
</svg>
