<?xml version="1.0" encoding="utf-8"?>
<!-- Generator: Adobe Illustrator 16.0.0, SVG Export Plug-In . SVG Version: 6.00 Build 0)  -->
<!DOCTYPE svg PUBLIC "-//W3C//DTD SVG 1.1//EN" "http://www.w3.org/Graphics/SVG/1.1/DTD/svg11.dtd">
<svg version="1.1" id="Layer_1" xmlns="http://www.w3.org/2000/svg" xmlns:xlink="http://www.w3.org/1999/xlink" x="0px" y="0px"
	 width="2267.72px" height="2267.72px" viewBox="0 0 2267.72 2267.72" enable-background="new 0 0 2267.72 2267.72"
	 xml:space="preserve">
<g>
	<g>
		<path fill="none" stroke="#010101" stroke-width="5" stroke-miterlimit="10" d="M544.521,1801.127V456.332
			c0-25.449,9.611-50.898,29.406-70.693c19.227-19.227,44.676-29.408,70.689-29.408h1095.41v1543.855"/>
		<path fill="none" stroke="#010101" stroke-width="5" stroke-miterlimit="10" d="M1738.33,1699.336l-1094.277,2.26
			c-25.445,0-50.898,9.615-70.686,29.41c-19.234,19.227-29.408,44.676-29.408,70.689l0,0c0,25.449,9.611,50.898,29.408,70.693
			c19.227,19.227,44.672,29.404,70.686,29.404h1098.801"/>
		
			<line fill="none" stroke="#010101" stroke-width="5" stroke-miterlimit="10" x1="644.057" y1="1801.127" x2="1738.33" y2="1802.256"/>
		<g>
			<path fill="none" stroke="#010101" stroke-width="5" stroke-miterlimit="10" d="M1291.566,1078.965"/>
			<path fill="none" stroke="#010101" stroke-width="5" stroke-miterlimit="10" d="M942.646,1078.965"/>
			<path fill="none" stroke="#010101" stroke-width="5" stroke-miterlimit="10" d="M1291.566,979.432"/>
			<path fill="none" stroke="#010101" stroke-width="5" stroke-miterlimit="10" d="M942.646,979.432"/>
			<path fill="none" stroke="#010101" stroke-width="5" stroke-miterlimit="10" d="M1291.566,879.902"/>
			<path fill="none" stroke="#010101" stroke-width="5" stroke-miterlimit="10" d="M1067.063,879.902"/>
		</g>
		<polyline fill="none" stroke="#010101" stroke-width="5" stroke-miterlimit="10" points="1639.932,1605.457 1639.932,456.332 
			818.234,456.332 818.234,1602.064 1639.932,1600.941 		"/>
		
			<line fill="none" stroke="#010101" stroke-width="5" stroke-miterlimit="10" x1="718.699" y1="1701.596" x2="718.699" y2="356.801"/>
	</g>
</g>
<rect x="816.533" y="455.197" fill="#010101" width="823.398" height="1145.74"/>
<g enable-background="new    ">
	<path fill="#FFFFFF" d="M903.359,783.65h-34.805V652.492c-12.719,11.889-27.703,20.682-44.959,26.377v-31.584
		c9.08-2.973,18.947-8.607,29.598-16.906c10.654-8.301,17.961-17.979,21.926-29.049h28.244v182.32H903.359z"/>
	<path fill="#FFFFFF" d="M954.135,735.477l33.689-4.09c1.072,8.586,3.963,15.15,8.668,19.691c4.709,4.541,10.406,6.814,17.092,6.814
		c7.186,0,13.23-2.727,18.143-8.174c4.91-5.449,7.371-12.799,7.371-22.049c0-8.752-2.354-15.686-7.063-20.809
		c-4.701-5.117-10.445-7.68-17.211-7.68c-4.465,0-9.785,0.869-15.979,2.604l3.84-28.363c9.414,0.246,16.6-1.799,21.553-6.131
		c4.955-4.334,7.43-10.096,7.43-17.277c0-6.111-1.818-10.982-5.447-14.615c-3.637-3.633-8.469-5.451-14.492-5.451
		c-5.947,0-11.025,2.066-15.236,6.195c-4.215,4.131-6.77,10.154-7.682,18.08l-32.074-5.449c2.227-10.98,5.594-19.756,10.094-26.318
		c4.498-6.566,10.77-11.723,18.822-15.482c8.049-3.756,17.07-5.635,27.061-5.635c17.096,0,30.801,5.449,41.125,16.354
		c8.502,8.916,12.75,18.992,12.75,30.221c0,15.938-8.713,28.656-26.133,38.148c10.406,2.227,18.727,7.223,24.957,14.986
		s9.352,17.135,9.352,28.113c0,15.936-5.822,29.521-17.465,40.75c-11.645,11.229-26.131,16.846-43.473,16.846
		c-16.432,0-30.059-4.727-40.873-14.182C962.146,763.117,955.869,750.75,954.135,735.477z"/>
	<path fill="#FFFFFF" d="M1126.297,685.682c-8.998-3.793-15.541-9.02-19.631-15.664c-4.086-6.646-6.131-13.936-6.131-21.859
		c0-13.539,4.729-24.73,14.184-33.566c9.447-8.834,22.885-13.254,40.309-13.254c17.26,0,30.656,4.42,40.193,13.254
		c9.537,8.836,14.305,20.027,14.305,33.566c0,8.422-2.189,15.916-6.564,22.48c-4.379,6.568-10.531,11.58-18.455,15.049
		c10.072,4.047,17.732,9.951,22.979,17.711c5.24,7.76,7.863,16.721,7.863,26.879c0,16.762-5.348,30.389-16.041,40.871
		c-10.691,10.49-24.92,15.732-42.674,15.732c-16.514,0-30.262-4.336-41.242-13.002c-12.963-10.238-19.445-24.279-19.445-42.111
		c0-9.826,2.434-18.846,7.307-27.064C1108.125,696.482,1115.807,690.141,1126.297,685.682z M1130.26,728.414
		c0,9.582,2.453,17.051,7.367,22.418c4.912,5.369,11.043,8.051,18.391,8.051c7.188,0,13.129-2.58,17.838-7.74
		c4.707-5.16,7.059-12.613,7.059-22.355c0-8.504-2.4-15.336-7.188-20.498c-4.787-5.16-10.855-7.74-18.207-7.74
		c-8.5,0-14.84,2.932-19.01,8.795C1132.346,715.203,1130.26,721.561,1130.26,728.414z M1133.48,650.633
		c0,6.936,1.961,12.346,5.883,16.227c3.922,3.879,9.146,5.82,15.668,5.82c6.605,0,11.893-1.959,15.855-5.883
		c3.965-3.922,5.945-9.352,5.945-16.287c0-6.52-1.967-11.744-5.885-15.668c-3.924-3.92-9.107-5.881-15.541-5.881
		c-6.695,0-12.018,1.98-15.98,5.943S1133.48,644.113,1133.48,650.633z"/>
	<path fill="#FFFFFF" d="M1244.705,783.65V602.078h54.863l32.945,123.859l32.574-123.859h54.992V783.65h-34.063V640.723
		l-36.041,142.928h-35.297l-35.916-142.928V783.65H1244.705L1244.705,783.65z"/>
	<path fill="#FFFFFF" d="M1456.006,783.65V602.078h54.863l32.949,123.859l32.57-123.859h54.996V783.65h-34.066V640.723
		l-36.037,142.928h-35.299l-35.918-142.928V783.65H1456.006L1456.006,783.65z"/>
</g>
<g enable-background="new    ">
	<path fill="#FFFFFF" d="M1106.648,1087.902l62.049-94.75l-56.23-86.82h42.854l36.412,58.336l35.668-58.336h42.488l-56.479,88.186
		l62.051,93.389h-44.219l-40.252-62.795l-40.379,62.795h-43.963V1087.902z"/>
</g>
<g enable-background="new    ">
	<path fill="#FFFFFF" d="M931.844,1359.818v32.326H809.848c1.32-12.221,5.283-23.799,11.889-34.742s19.65-25.453,39.139-43.537
		c15.688-14.617,25.307-24.521,28.861-29.725c4.791-7.188,7.184-14.283,7.184-21.297c0-7.762-2.086-13.727-6.256-17.9
		c-4.172-4.172-9.928-6.254-17.279-6.254c-7.266,0-13.047,2.189-17.336,6.564c-4.295,4.379-6.773,11.646-7.43,21.799l-34.684-3.467
		c2.064-19.154,8.547-32.9,19.445-41.242c10.9-8.342,24.525-12.51,40.873-12.51c17.916,0,31.996,4.828,42.238,14.486
		c10.23,9.66,15.352,21.672,15.352,36.041c0,8.176-1.465,15.953-4.395,23.346c-2.932,7.393-7.572,15.133-13.93,23.223
		c-4.213,5.371-11.813,13.086-22.793,23.164c-10.984,10.08-17.939,16.762-20.867,20.064c-2.936,3.303-5.303,6.525-7.125,9.66
		H931.844z"/>
	<path fill="#FFFFFF" d="M1044.43,1392.145h-34.805v-131.16c-12.721,11.891-27.701,20.682-44.957,26.383v-31.588
		c9.08-2.973,18.943-8.609,29.598-16.908c10.654-8.297,17.961-17.975,21.924-29.041h28.244v182.314H1044.43z"/>
	<path fill="#FFFFFF" d="M1214.361,1255.037l-33.691,3.719c-0.824-6.938-2.973-12.055-6.439-15.357
		c-3.469-3.303-7.971-4.957-13.5-4.957c-7.352,0-13.563,3.303-18.641,9.908c-5.08,6.605-8.277,20.352-9.596,41.244
		c8.668-10.236,19.445-15.357,32.326-15.357c14.531,0,26.979,5.529,37.344,16.596c10.359,11.063,15.545,25.354,15.545,42.854
		c0,18.578-5.451,33.488-16.352,44.711c-10.898,11.236-24.896,16.848-41.988,16.848c-18.328,0-33.398-7.123-45.207-21.365
		s-17.709-37.596-17.709-70.043c0-33.273,6.15-57.26,18.455-71.959c12.299-14.699,28.273-22.047,47.926-22.047
		c13.791,0,25.209,3.859,34.252,11.578C1206.123,1229.135,1211.883,1240.342,1214.361,1255.037z M1135.463,1330.963
		c0,11.314,2.602,20.047,7.805,26.195c5.201,6.152,11.146,9.229,17.83,9.229c6.439,0,11.809-2.516,16.102-7.551
		c4.291-5.037,6.439-13.293,6.439-24.771c0-11.809-2.313-20.461-6.936-25.953c-4.625-5.486-10.402-8.232-17.342-8.232
		c-6.691,0-12.342,2.621-16.971,7.861C1137.775,1312.982,1135.463,1320.725,1135.463,1330.963z"/>
	<path fill="#FFFFFF" d="M1244.705,1392.145v-181.572h54.863l32.945,123.855l32.574-123.855h54.992v181.572h-34.063v-142.926
		l-36.041,142.926h-35.297l-35.916-142.926v142.926H1244.705z"/>
	<path fill="#FFFFFF" d="M1456.006,1392.145v-181.572h54.863l32.949,123.855l32.57-123.855h54.996v181.572h-34.066v-142.926
		l-36.037,142.926h-35.299l-35.918-142.926v142.926H1456.006z"/>
</g>
<circle fill="none" stroke="#010101" stroke-width="5" stroke-miterlimit="10" cx="1134.357" cy="1134.383" r="1097.102"/>
</svg>
