<?xml version="1.0" encoding="utf-8"?>
<!-- Generator: Adobe Illustrator 16.0.0, SVG Export Plug-In . SVG Version: 6.00 Build 0)  -->
<!DOCTYPE svg PUBLIC "-//W3C//DTD SVG 1.1//EN" "http://www.w3.org/Graphics/SVG/1.1/DTD/svg11.dtd">
<svg version="1.1" id="Layer_1" xmlns="http://www.w3.org/2000/svg" xmlns:xlink="http://www.w3.org/1999/xlink" x="0px" y="0px"
	 width="1417.32px" height="1417.32px" viewBox="0 0 1417.32 1417.32" enable-background="new 0 0 1417.32 1417.32"
	 xml:space="preserve">
<g>
	<g>
		<path fill="none" stroke="#010101" stroke-width="5" stroke-miterlimit="10" d="M344.59,1120.714v-831.65
			c0-15.738,5.945-31.477,18.186-43.719c11.891-11.891,27.629-18.186,43.717-18.186h677.424v954.752"/>
		<path fill="none" stroke="#010101" stroke-width="5" stroke-miterlimit="10" d="M1082.867,1057.763l-676.725,1.398
			c-15.736,0-31.477,5.945-43.713,18.188c-11.895,11.889-18.188,27.629-18.188,43.715l0,0c0,15.74,5.945,31.479,18.188,43.719
			c11.889,11.891,27.625,18.186,43.713,18.186h679.521"/>
		
			<line fill="none" stroke="#010101" stroke-width="5" stroke-miterlimit="10" x1="406.145" y1="1120.714" x2="1082.867" y2="1121.411"/>
		<g>
			<path fill="none" stroke="#010101" stroke-width="5" stroke-miterlimit="10" d="M806.58,674.112"/>
			<path fill="none" stroke="#010101" stroke-width="5" stroke-miterlimit="10" d="M590.799,674.112"/>
			<path fill="none" stroke="#010101" stroke-width="5" stroke-miterlimit="10" d="M806.58,612.56"/>
			<path fill="none" stroke="#010101" stroke-width="5" stroke-miterlimit="10" d="M590.799,612.56"/>
			<path fill="none" stroke="#010101" stroke-width="5" stroke-miterlimit="10" d="M806.58,551.009"/>
			<path fill="none" stroke="#010101" stroke-width="5" stroke-miterlimit="10" d="M667.74,551.009"/>
		</g>
		<polyline fill="none" stroke="#010101" stroke-width="5" stroke-miterlimit="10" points="1022.016,999.708 1022.016,289.063 
			513.859,289.063 513.859,997.608 1022.016,996.913 		"/>
		
			<line fill="none" stroke="#010101" stroke-width="5" stroke-miterlimit="10" x1="452.305" y1="1059.161" x2="452.305" y2="227.511"/>
	</g>
</g>
<rect x="512.809" y="288.362" fill="#010101" width="509.207" height="708.549"/>
<g enable-background="new    ">
	<path fill="#FFFFFF" d="M566.502,491.485h-21.523v-81.113c-7.865,7.354-17.131,12.791-27.803,16.313v-19.531
		c5.615-1.838,11.719-5.324,18.305-10.455c6.588-5.133,11.107-11.119,13.559-17.965h17.467v112.752H566.502z"/>
	<path fill="#FFFFFF" d="M671.357,471.495v19.992h-75.443c0.818-7.555,3.268-14.717,7.354-21.486
		c4.084-6.766,12.152-15.74,24.205-26.924c9.699-9.037,15.65-15.166,17.848-18.385c2.963-4.441,4.441-8.832,4.441-13.174
		c0-4.799-1.289-8.486-3.869-11.066c-2.578-2.578-6.139-3.867-10.684-3.867c-4.494,0-8.07,1.354-10.723,4.059
		c-2.654,2.707-4.188,7.201-4.594,13.482l-21.449-2.146c1.275-11.846,5.285-20.35,12.025-25.508
		c6.738-5.154,15.166-7.736,25.279-7.736c11.08,0,19.787,2.988,26.117,8.961c6.33,5.975,9.498,13.404,9.498,22.291
		c0,5.055-0.91,9.869-2.719,14.438c-1.814,4.572-4.686,9.359-8.617,14.361c-2.604,3.32-7.303,8.094-14.092,14.322
		c-6.793,6.23-11.1,10.369-12.908,12.408c-1.813,2.045-3.281,4.035-4.406,5.975h42.736V471.495z"/>
	<path fill="#FFFFFF" d="M685.914,400.72v-19.99h73.607v15.625c-6.076,5.973-12.254,14.553-18.535,25.738
		c-6.283,11.182-11.072,23.066-14.361,35.652c-3.295,12.588-4.916,23.834-4.863,33.74h-20.758
		c0.355-15.523,3.564-31.352,9.611-47.49c6.051-16.135,14.135-30.561,24.242-43.277h-48.943V400.72z"/>
	<path fill="#FFFFFF" d="M777.6,491.485V379.196h33.928l20.373,76.596l20.146-76.596h34.008v112.289H864.99v-88.391l-22.289,88.391
		h-21.83l-22.209-88.391v88.391H777.6L777.6,491.485z"/>
	<path fill="#FFFFFF" d="M908.271,491.485V379.196h33.928l20.377,76.596l20.143-76.596h34.012v112.289h-21.068v-88.391
		l-22.285,88.391h-21.83l-22.213-88.391v88.391H908.271L908.271,491.485z"/>
</g>
<g enable-background="new    ">
	<path fill="#FFFFFF" d="M692.219,679.64l38.375-58.596l-34.773-53.691h26.5l22.52,36.078l22.059-36.078h26.273l-34.926,54.537
		l38.373,57.754h-27.346l-24.893-38.836l-24.973,38.836h-27.189V679.64z"/>
</g>
<g enable-background="new    ">
	<path fill="#FFFFFF" d="M584.119,847.798v19.992h-75.445c0.816-7.557,3.268-14.717,7.352-21.484
		c4.086-6.77,12.152-15.742,24.205-26.926c9.701-9.039,15.648-15.164,17.846-18.381c2.965-4.443,4.445-8.834,4.445-13.172
		c0-4.801-1.291-8.488-3.867-11.07c-2.582-2.58-6.141-3.867-10.688-3.867c-4.49,0-8.068,1.355-10.723,4.061
		c-2.654,2.707-4.188,7.201-4.594,13.48l-21.449-2.145c1.277-11.846,5.287-20.346,12.025-25.506
		c6.74-5.158,15.168-7.736,25.277-7.736c11.08,0,19.787,2.986,26.119,8.961c6.328,5.973,9.496,13.402,9.496,22.287
		c0,5.057-0.906,9.867-2.717,14.438c-1.814,4.572-4.686,9.359-8.615,14.361c-2.605,3.322-7.305,8.092-14.096,14.326
		c-6.793,6.232-11.094,10.365-12.904,12.408c-1.816,2.043-3.279,4.035-4.406,5.973H584.119z"/>
	<path fill="#FFFFFF" d="M635.055,755.044c10.877,0,19.379,3.881,25.506,11.643c7.303,9.189,10.953,24.432,10.953,45.725
		c0,21.246-3.674,36.512-11.029,45.807c-6.076,7.66-14.549,11.488-25.428,11.488c-10.928,0-19.736-4.199-26.426-12.6
		c-6.689-8.398-10.035-23.371-10.035-44.92c0-21.141,3.676-36.359,11.029-45.652C615.701,758.876,624.18,755.044,635.055,755.044z
		 M635.055,772.89c-2.605,0-4.932,0.834-6.971,2.49c-2.041,1.662-3.625,4.637-4.75,8.924c-1.48,5.566-2.219,14.938-2.219,28.111
		s0.66,22.225,1.992,27.154c1.326,4.93,2.996,8.209,5.016,9.84c2.02,1.635,4.328,2.451,6.934,2.451c2.604,0,4.928-0.83,6.971-2.49
		c2.041-1.658,3.625-4.633,4.748-8.922c1.482-5.516,2.221-14.859,2.221-28.037c0-13.17-0.666-22.225-1.992-27.154
		c-1.328-4.926-3.002-8.221-5.016-9.877C639.971,773.718,637.656,772.89,635.055,772.89z"/>
	<path fill="#FFFFFF" d="M685.146,837.997l20.832-2.529c0.664,5.313,2.451,9.373,5.361,12.18c2.91,2.809,6.436,4.213,10.57,4.213
		c4.443,0,8.182-1.684,11.221-5.053c3.035-3.373,4.557-7.916,4.557-13.637c0-5.412-1.455-9.699-4.367-12.867
		c-2.91-3.166-6.459-4.748-10.643-4.748c-2.76,0-6.053,0.533-9.881,1.607l2.373-17.541c5.822,0.152,10.266-1.109,13.33-3.791
		c3.063-2.682,4.594-6.24,4.594-10.686c0-3.775-1.123-6.791-3.371-9.037c-2.25-2.248-5.234-3.371-8.959-3.371
		c-3.678,0-6.818,1.275-9.424,3.826c-2.602,2.557-4.186,6.285-4.75,11.186l-19.836-3.369c1.379-6.793,3.459-12.217,6.24-16.279
		c2.783-4.063,6.664-7.25,11.643-9.574c4.98-2.322,10.557-3.482,16.736-3.482c10.57,0,19.045,3.369,25.43,10.109
		c5.258,5.516,7.889,11.746,7.889,18.691c0,9.854-5.389,17.719-16.162,23.592c6.434,1.379,11.578,4.465,15.432,9.266
		c3.855,4.801,5.783,10.598,5.783,17.387c0,9.854-3.6,18.258-10.799,25.197c-7.199,6.947-16.162,10.42-26.887,10.42
		c-10.158,0-18.586-2.922-25.275-8.77C690.094,855.093,686.217,847.44,685.146,837.997z"/>
	<path fill="#FFFFFF" d="M777.6,867.79V755.501h33.928l20.373,76.596l20.146-76.596h34.008V867.79H864.99v-88.389l-22.289,88.389
		h-21.83l-22.209-88.389v88.389H777.6z"/>
	<path fill="#FFFFFF" d="M908.271,867.79V755.501h33.928l20.377,76.596l20.143-76.596h34.012V867.79h-21.068v-88.389l-22.285,88.389
		h-21.83l-22.213-88.389v88.389H908.271z"/>
</g>
<circle fill="none" stroke="#010101" stroke-width="5" stroke-miterlimit="10" cx="709.357" cy="708.384" r="678.471"/>
</svg>
