<?xml version="1.0" encoding="utf-8"?>
<!-- Generator: Adobe Illustrator 16.0.0, SVG Export Plug-In . SVG Version: 6.00 Build 0)  -->
<!DOCTYPE svg PUBLIC "-//W3C//DTD SVG 1.1//EN" "http://www.w3.org/Graphics/SVG/1.1/DTD/svg11.dtd">
<svg version="1.1" id="Layer_1" xmlns="http://www.w3.org/2000/svg" xmlns:xlink="http://www.w3.org/1999/xlink" x="0px" y="0px"
	 width="1417.32px" height="1417.32px" viewBox="0 0 1417.32 1417.32" enable-background="new 0 0 1417.32 1417.32"
	 xml:space="preserve">
<g>
	<g>
		<path fill="none" stroke="#010101" stroke-width="5" stroke-miterlimit="10" d="M344.594,1120.714v-831.65
			c0-15.738,5.941-31.477,18.182-43.717c11.893-11.893,27.629-18.188,43.719-18.188h677.422v954.752"/>
		<path fill="none" stroke="#010101" stroke-width="5" stroke-miterlimit="10" d="M1082.869,1057.763l-676.727,1.398
			c-15.736,0-31.475,5.945-43.713,18.188c-11.895,11.889-18.188,27.629-18.188,43.715l0,0c0,15.74,5.945,31.479,18.188,43.719
			c11.889,11.891,27.625,18.186,43.713,18.186h679.521"/>
		
			<line fill="none" stroke="#010101" stroke-width="5" stroke-miterlimit="10" x1="406.145" y1="1120.714" x2="1082.869" y2="1121.411"/>
		<g>
			<path fill="none" stroke="#010101" stroke-width="5" stroke-miterlimit="10" d="M806.582,674.112"/>
			<path fill="none" stroke="#010101" stroke-width="5" stroke-miterlimit="10" d="M590.799,674.112"/>
			<path fill="none" stroke="#010101" stroke-width="5" stroke-miterlimit="10" d="M806.582,612.56"/>
			<path fill="none" stroke="#010101" stroke-width="5" stroke-miterlimit="10" d="M590.799,612.56"/>
			<path fill="none" stroke="#010101" stroke-width="5" stroke-miterlimit="10" d="M806.582,551.009"/>
			<path fill="none" stroke="#010101" stroke-width="5" stroke-miterlimit="10" d="M667.74,551.009"/>
		</g>
		<polyline fill="none" stroke="#010101" stroke-width="5" stroke-miterlimit="10" points="1022.016,999.706 1022.016,289.063 
			513.859,289.063 513.859,997.608 1022.016,996.913 		"/>
		
			<line fill="none" stroke="#010101" stroke-width="5" stroke-miterlimit="10" x1="452.307" y1="1059.161" x2="452.307" y2="227.511"/>
	</g>
</g>
<rect x="512.811" y="288.362" fill="#010101" width="509.205" height="708.549"/>
<g enable-background="new    ">
	<path fill="#FFFFFF" d="M584.119,471.495v19.992h-75.445c0.818-7.555,3.27-14.717,7.352-21.486
		c4.086-6.766,12.154-15.74,24.207-26.924c9.701-9.037,15.646-15.166,17.846-18.385c2.963-4.441,4.443-8.832,4.443-13.174
		c0-4.799-1.291-8.488-3.867-11.066c-2.582-2.578-6.141-3.867-10.686-3.867c-4.492,0-8.07,1.354-10.725,4.059
		c-2.654,2.707-4.188,7.201-4.594,13.482l-21.449-2.146c1.277-11.846,5.287-20.348,12.025-25.508
		c6.74-5.154,15.168-7.736,25.277-7.736c11.08,0,19.787,2.988,26.121,8.961c6.326,5.975,9.496,13.404,9.496,22.291
		c0,5.055-0.906,9.869-2.719,14.438c-1.813,4.572-4.686,9.359-8.615,14.361c-2.605,3.32-7.305,8.094-14.096,14.322
		c-6.791,6.23-11.094,10.369-12.904,12.408c-1.814,2.045-3.279,4.035-4.406,5.975h42.738V471.495z"/>
	<path fill="#FFFFFF" d="M653.744,491.485h-21.523v-81.113c-7.865,7.354-17.133,12.791-27.803,16.314v-19.533
		c5.617-1.838,11.717-5.324,18.303-10.455c6.59-5.133,11.111-11.119,13.563-17.965h17.463v112.752H653.744z"/>
	<path fill="#FFFFFF" d="M722.295,378.735c10.879,0,19.379,3.883,25.51,11.645c7.299,9.191,10.953,24.434,10.953,45.727
		c0,21.244-3.676,36.514-11.029,45.805c-6.078,7.658-14.553,11.488-25.43,11.488c-10.928,0-19.734-4.199-26.424-12.6
		c-6.693-8.4-10.037-23.375-10.037-44.924c0-21.141,3.676-36.355,11.031-45.65C702.945,382.567,711.42,378.735,722.295,378.735z
		 M722.295,396.585c-2.602,0-4.926,0.83-6.969,2.488c-2.043,1.66-3.625,4.635-4.748,8.924c-1.484,5.566-2.221,14.934-2.221,28.107
		s0.662,22.227,1.99,27.154s2.998,8.209,5.018,9.842c2.016,1.633,4.328,2.451,6.93,2.451c2.605,0,4.93-0.83,6.971-2.49
		c2.043-1.66,3.625-4.635,4.75-8.924c1.48-5.516,2.223-14.859,2.223-28.035c0-13.174-0.666-22.225-1.994-27.152
		s-3-8.221-5.018-9.883C727.211,397.415,724.9,396.585,722.295,396.585z"/>
	<path fill="#FFFFFF" d="M777.6,491.485V379.198h33.928l20.377,76.594l20.143-76.594h34.01v112.287H864.99v-88.391l-22.287,88.391
		h-21.828l-22.213-88.391v88.391H777.6L777.6,491.485z"/>
	<path fill="#FFFFFF" d="M908.273,491.485V379.198h33.93l20.373,76.594l20.145-76.594h34.01v112.287h-21.066v-88.391l-22.287,88.391
		h-21.828l-22.213-88.391v88.391H908.273L908.273,491.485z"/>
</g>
<g enable-background="new    ">
	<path fill="#FFFFFF" d="M692.221,679.64l38.373-58.596l-34.771-53.691h26.502l22.518,36.078l22.059-36.078h26.271l-34.926,54.537
		l38.373,57.752h-27.344l-24.893-38.834l-24.971,38.834h-27.191V679.64z"/>
</g>
<g enable-background="new    ">
	<path fill="#FFFFFF" d="M584.119,847.798v19.992h-75.445c0.818-7.557,3.27-14.717,7.352-21.484
		c4.086-6.766,12.154-15.742,24.207-26.926c9.701-9.039,15.646-15.164,17.846-18.381c2.963-4.443,4.443-8.834,4.443-13.172
		c0-4.801-1.291-8.488-3.867-11.07c-2.582-2.58-6.141-3.867-10.686-3.867c-4.492,0-8.07,1.355-10.725,4.061
		c-2.654,2.707-4.188,7.201-4.594,13.48l-21.449-2.145c1.277-11.846,5.287-20.348,12.025-25.506
		c6.74-5.158,15.168-7.736,25.277-7.736c11.08,0,19.787,2.986,26.121,8.961c6.326,5.973,9.496,13.402,9.496,22.287
		c0,5.057-0.906,9.869-2.719,14.438c-1.813,4.572-4.686,9.359-8.615,14.361c-2.605,3.322-7.305,8.096-14.096,14.326
		c-6.791,6.232-11.094,10.365-12.904,12.408c-1.814,2.043-3.279,4.035-4.406,5.973H584.119z"/>
	<path fill="#FFFFFF" d="M653.744,867.79h-21.523v-81.111c-7.865,7.352-17.133,12.789-27.803,16.313v-19.533
		c5.617-1.838,11.717-5.324,18.303-10.455c6.59-5.131,11.111-11.115,13.563-17.961h17.463V867.79H653.744z"/>
	<path fill="#FFFFFF" d="M722.295,755.044c10.879,0,19.379,3.879,25.51,11.643c7.299,9.189,10.953,24.432,10.953,45.727
		c0,21.244-3.676,36.51-11.029,45.803c-6.078,7.662-14.553,11.49-25.43,11.49c-10.928,0-19.734-4.199-26.424-12.6
		c-6.693-8.398-10.037-23.373-10.037-44.922c0-21.141,3.676-36.357,11.031-45.65C702.945,758.876,711.42,755.044,722.295,755.044z
		 M722.295,772.89c-2.602,0-4.926,0.834-6.969,2.49c-2.043,1.66-3.625,4.637-4.748,8.926c-1.484,5.564-2.221,14.936-2.221,28.109
		s0.662,22.227,1.99,27.154c1.328,4.93,2.998,8.209,5.018,9.84c2.016,1.635,4.328,2.451,6.93,2.451c2.605,0,4.93-0.83,6.971-2.49
		c2.043-1.658,3.625-4.633,4.75-8.922c1.48-5.516,2.223-14.859,2.223-28.035c0-13.172-0.666-22.225-1.994-27.156
		c-1.328-4.926-3-8.221-5.018-9.879C727.211,773.718,724.9,772.89,722.295,772.89z"/>
	<path fill="#FFFFFF" d="M777.6,867.79V755.501h33.928l20.377,76.598l20.143-76.598h34.01V867.79H864.99v-88.389l-22.287,88.389
		h-21.828l-22.213-88.389v88.389H777.6z"/>
	<path fill="#FFFFFF" d="M908.273,867.79V755.501h33.93l20.373,76.598l20.145-76.598h34.01V867.79h-21.066v-88.389l-22.287,88.389
		h-21.828l-22.213-88.389v88.389H908.273z"/>
</g>
<circle fill="none" stroke="#010101" stroke-width="5" stroke-miterlimit="10" cx="709.357" cy="708.384" r="678.471"/>
</svg>
