<?xml version="1.0" encoding="utf-8"?>
<!-- Generator: Adobe Illustrator 16.0.0, SVG Export Plug-In . SVG Version: 6.00 Build 0)  -->
<!DOCTYPE svg PUBLIC "-//W3C//DTD SVG 1.1//EN" "http://www.w3.org/Graphics/SVG/1.1/DTD/svg11.dtd">
<svg version="1.1" id="Layer_1" xmlns="http://www.w3.org/2000/svg" xmlns:xlink="http://www.w3.org/1999/xlink" x="0px" y="0px"
	 width="2267.721px" height="2267.719px" viewBox="0 0 2267.721 2267.719" enable-background="new 0 0 2267.721 2267.719"
	 xml:space="preserve">
<g>
	<g>
		<path fill="none" stroke="#000000" stroke-width="5" stroke-miterlimit="10" d="M544.528,1801.127V456.333
			c0-25.449,9.607-50.896,29.4-70.691c19.23-19.229,44.678-29.408,70.693-29.408h1095.406V1900.09"/>
		<path fill="none" stroke="#000000" stroke-width="5" stroke-miterlimit="10" d="M1738.337,1699.336L644.055,1701.6
			c-25.447,0-50.896,9.611-70.686,29.404c-19.234,19.23-29.41,44.68-29.41,70.693l0,0c0,25.449,9.615,50.9,29.41,70.693
			c19.225,19.223,44.672,29.406,70.686,29.406h1098.801"/>
		
			<line fill="none" stroke="#000000" stroke-width="5" stroke-miterlimit="10" x1="644.059" y1="1801.127" x2="1738.337" y2="1802.254"/>
		<g>
			<path fill="none" stroke="#000000" stroke-width="5" stroke-miterlimit="10" d="M1291.573,1078.965"/>
			<path fill="none" stroke="#000000" stroke-width="5" stroke-miterlimit="10" d="M942.647,1078.965"/>
			<path fill="none" stroke="#000000" stroke-width="5" stroke-miterlimit="10" d="M1291.573,979.432"/>
			<path fill="none" stroke="#000000" stroke-width="5" stroke-miterlimit="10" d="M942.647,979.432"/>
			<path fill="none" stroke="#000000" stroke-width="5" stroke-miterlimit="10" d="M1291.573,879.903"/>
			<path fill="none" stroke="#000000" stroke-width="5" stroke-miterlimit="10" d="M1067.065,879.903"/>
		</g>
		<polyline fill="none" stroke="#000000" stroke-width="5" stroke-miterlimit="10" points="1639.932,1605.456 1639.932,456.333 
			818.235,456.333 818.235,1602.065 1639.932,1600.944 		"/>
		
			<line fill="none" stroke="#000000" stroke-width="5" stroke-miterlimit="10" x1="718.704" y1="1701.6" x2="718.704" y2="356.801"/>
	</g>
</g>
<rect x="816.54" y="455.2" width="823.393" height="1145.736"/>
<g enable-background="new    ">
	<path fill="#FFFFFF" d="M903.36,783.653h-34.805V652.491c-12.717,11.893-27.701,20.686-44.957,26.381v-31.584
		c9.084-2.973,18.947-8.607,29.598-16.908c10.654-8.299,17.965-17.977,21.928-29.047h28.24v182.32H903.36z"/>
	<path fill="#FFFFFF" d="M954.141,735.477l33.684-4.09c1.072,8.588,3.963,15.15,8.668,19.693c4.711,4.539,10.406,6.813,17.094,6.813
		c7.188,0,13.232-2.727,18.146-8.174c4.91-5.449,7.365-12.799,7.365-22.049c0-8.752-2.348-15.686-7.057-20.809
		c-4.707-5.117-10.447-7.68-17.217-7.68c-4.459,0-9.785,0.871-15.979,2.604l3.842-28.363c9.418,0.248,16.598-1.797,21.557-6.131
		c4.953-4.334,7.426-10.094,7.426-17.277c0-6.109-1.816-10.982-5.449-14.613c-3.637-3.633-8.465-5.449-14.486-5.449
		c-5.949,0-11.025,2.063-15.242,6.193c-4.215,4.131-6.768,10.152-7.678,18.08l-32.076-5.451c2.227-10.98,5.592-19.754,10.094-26.316
		c4.498-6.566,10.771-11.723,18.824-15.482c8.051-3.758,17.068-5.635,27.061-5.635c17.098,0,30.797,5.449,41.121,16.352
		c8.502,8.918,12.754,18.992,12.754,30.223c0,15.936-8.713,28.654-26.131,38.146c10.404,2.229,18.721,7.225,24.955,14.988
		c6.23,7.764,9.352,17.133,9.352,28.111c0,15.938-5.822,29.523-17.467,40.75c-11.641,11.23-26.133,16.846-43.471,16.846
		c-16.432,0-30.059-4.725-40.875-14.182C962.149,763.118,955.874,750.75,954.141,735.477z"/>
	<path fill="#FFFFFF" d="M1213.987,751.331v32.326h-121.992c1.32-12.217,5.285-23.799,11.891-34.744
		c6.602-10.939,19.652-25.451,39.139-43.537c15.686-14.613,25.309-24.523,28.859-29.727c4.787-7.182,7.182-14.283,7.182-21.303
		c0-7.76-2.086-13.727-6.254-17.893c-4.172-4.17-9.93-6.256-17.277-6.256c-7.268,0-13.053,2.188-17.342,6.563
		c-4.293,4.377-6.766,11.643-7.43,21.801l-34.678-3.471c2.059-19.156,8.545-32.902,19.445-41.244
		c10.898-8.338,24.521-12.51,40.871-12.51c17.916,0,31.996,4.83,42.234,14.488c10.238,9.66,15.355,21.676,15.355,36.045
		c0,8.174-1.465,15.959-4.393,23.346c-2.932,7.393-7.574,15.133-13.936,23.223c-4.207,5.369-11.805,13.088-22.789,23.16
		c-10.984,10.076-17.941,16.766-20.865,20.064c-2.932,3.307-5.307,6.525-7.121,9.66h69.1V751.331z"/>
	<path fill="#FFFFFF" d="M1244.708,783.653v-181.57h54.861l32.949,123.855l32.572-123.855h54.996v181.57h-34.066v-142.93
		l-36.037,142.93h-35.299l-35.918-142.93v142.93H1244.708L1244.708,783.653z"/>
	<path fill="#FFFFFF" d="M1456.012,783.653v-181.57h54.861l32.945,123.855l32.576-123.855h54.992v181.57h-34.063v-142.93
		l-36.041,142.93h-35.295l-35.918-142.93v142.93H1456.012L1456.012,783.653z"/>
</g>
<g enable-background="new    ">
	<path fill="#FFFFFF" d="M1106.649,1087.903l62.051-94.75l-56.229-86.82h42.854l36.412,58.338l35.67-58.338h42.482l-56.477,88.188
		l62.051,93.387h-44.217l-40.252-62.795l-40.379,62.795h-43.967V1087.903z"/>
</g>
<g enable-background="new    ">
	<path fill="#FFFFFF" d="M903.36,1392.145h-34.805v-131.16c-12.717,11.891-27.701,20.686-44.957,26.377v-31.58
		c9.084-2.977,18.947-8.609,29.598-16.906c10.654-8.299,17.965-17.977,21.928-29.043h28.24v182.313H903.36z"/>
	<path fill="#FFFFFF" d="M956.122,1350.159l33.689-3.719c0.822,6.857,2.971,11.936,6.438,15.238s8.049,4.957,13.75,4.957
		c7.184,0,13.295-3.303,18.328-9.916c5.035-6.598,8.26-20.307,9.658-41.109c-8.75,10.152-19.689,15.23-32.818,15.23
		c-14.287,0-26.611-5.508-36.973-16.537c-10.365-11.021-15.545-25.367-15.545-43.039c0-18.414,5.471-33.25,16.41-44.523
		c10.943-11.273,24.873-16.908,41.803-16.908c18.414,0,33.521,7.125,45.334,21.369c11.805,14.242,17.707,37.672,17.707,70.285
		c0,33.189-6.148,57.141-18.449,71.836c-12.303,14.695-28.322,22.051-48.057,22.051c-14.203,0-25.68-3.779-34.432-11.334
		C964.212,1376.477,958.598,1365.196,956.122,1350.159z M1034.895,1274.114c0-11.229-2.584-19.941-7.742-26.133
		c-5.162-6.189-11.129-9.291-17.896-9.291c-6.443,0-11.791,2.537-16.043,7.621c-4.25,5.078-6.379,13.396-6.379,24.953
		c0,11.727,2.311,20.336,6.936,25.828c4.623,5.492,10.404,8.238,17.342,8.238c6.686,0,12.32-2.643,16.906-7.934
		C1032.604,1292.112,1034.895,1284.348,1034.895,1274.114z"/>
	<path fill="#FFFFFF" d="M1096.456,1245.377v-32.33h119.02v25.271c-9.826,9.656-19.816,23.527-29.973,41.607
		c-10.156,18.086-17.898,37.301-23.223,57.66c-5.322,20.357-7.949,38.541-7.859,54.559h-33.566
		c0.572-25.102,5.76-50.699,15.541-76.795c9.787-26.088,22.854-49.414,39.199-69.973H1096.456L1096.456,1245.377z"/>
	<path fill="#FFFFFF" d="M1244.708,1392.145v-181.57h54.861l32.949,123.857l32.572-123.857h54.996v181.57h-34.066v-142.924
		l-36.037,142.924h-35.299l-35.918-142.924v142.924H1244.708z"/>
	<path fill="#FFFFFF" d="M1456.012,1392.145v-181.57h54.861l32.945,123.857l32.576-123.857h54.992v181.57h-34.063v-142.924
		l-36.041,142.924h-35.295l-35.918-142.924v142.924H1456.012z"/>
</g>
<circle fill="none" stroke="#000000" stroke-width="5" stroke-miterlimit="10" cx="1134.358" cy="1134.384" r="1097.101"/>
</svg>
