<?xml version="1.0" encoding="utf-8"?>
<!-- Generator: Adobe Illustrator 25.4.1, SVG Export Plug-In . SVG Version: 6.00 Build 0)  -->
<svg version="1.1" id="Layer_1" xmlns="http://www.w3.org/2000/svg" xmlns:xlink="http://www.w3.org/1999/xlink" x="0px" y="0px"
	 viewBox="0 0 60 60" style="enable-background:new 0 0 60 60;" xml:space="preserve">
<style type="text/css">
	.st0{fill:#FFFFFF;stroke:#020203;stroke-width:0.25;stroke-miterlimit:10;enable-background:new    ;}
</style>
<sodipodi:namedview  bordercolor="#666666" borderopacity="1.0" id="base" pagecolor="#ffffff" showgrid="false">
	</sodipodi:namedview>
<g id="layer1">
	<g id="g5244" transform="matrix(5.7045087,0,0,5.7045087,-151.37654,15.653405)">
		<path id="path4485" class="st0" d="M35.63,5.08c0,0.59-0.44,1.07-0.99,1.08c-0.55,0-0.99-0.48-0.99-1.07
			c0-0.59,0.44-1.08,0.98-1.08c0.55,0,0.99,0.47,1,1.06"/>
		<path id="path4485-6" class="st0" d="M29.85,5.08c0,0.59-0.44,1.07-0.99,1.08c-0.55,0-0.99-0.48-0.99-1.07
			c0-0.59,0.44-1.08,0.98-1.08c0.55,0,0.99,0.47,1,1.06"/>
		<path id="rect4506" class="st0" d="M26.84-0.24c-0.01,0-0.03,0.01-0.03,0.03v5.29c0,0.02,0.01,0.03,0.03,0.03h0.76
			c0-0.73,0.54-1.33,1.22-1.33c0.68-0.01,1.23,0.58,1.24,1.32l0,0.01h3.28c0.01,0,0.03-0.01,0.03-0.03v-5.29
			c0-0.02-0.01-0.03-0.03-0.03L26.84-0.24z"/>
		<path id="rect4506-8" class="st0" d="M33.55,0.53v3.96c0.21-0.43,0.62-0.7,1.07-0.71c0.68-0.01,1.23,0.58,1.24,1.32l0,0.01h0.93
			v-2.6l-0.94-1.99L33.55,0.53z M35.65,0.91l0.76,1.61l-1.93-0.01l0-1.59L35.65,0.91z"/>
	</g>
</g>
</svg>
