<?xml version="1.0" encoding="utf-8"?>
<!-- Generator: Adobe Illustrator 25.4.1, SVG Export Plug-In . SVG Version: 6.00 Build 0)  -->
<svg version="1.1" id="Layer_1" xmlns="http://www.w3.org/2000/svg" xmlns:xlink="http://www.w3.org/1999/xlink" x="0px" y="0px"
	 viewBox="0 0 60 60" style="enable-background:new 0 0 60 60;" xml:space="preserve">
<style type="text/css">
	.st0{fill:url(#path2185_00000118377808323392047950000005607731076087738269_);stroke:#000000;stroke-width:0.25;}
	.st1{fill:#020203;}
	.st2{fill:#FFFFFF;stroke:#000000;stroke-width:0.5;stroke-miterlimit:10;}
</style>
<sodipodi:namedview  bordercolor="#666666" borderopacity="1.0" id="base" pagecolor="#ffffff" showgrid="false">
	</sodipodi:namedview>
<linearGradient id="path2185_00000053530992961340703380000004445333626362020788_" gradientUnits="userSpaceOnUse" x1="20.8056" y1="71.1731" x2="27.8062" y2="61.3693" gradientTransform="matrix(1 0 0 -1 -5.0356 96.1728)">
	<stop  offset="0" style="stop-color:#A1892F"/>
	<stop  offset="0.6667" style="stop-color:#E3C566"/>
	<stop  offset="1" style="stop-color:#FEF8CE"/>
</linearGradient>
<path id="path2185" style="fill:url(#path2185_00000053530992961340703380000004445333626362020788_);stroke:#000000;stroke-width:0.25;" d="
	M53.74,51.55l-11.12,2.42l-4.74-9.89h-16.3l-4.19,10.01L6.26,51.55L29.97,5.02L53.74,51.55z M34.06,34.92l-4.41-9.73l-4.29,9.73
	H34.06z"/>
<path id="rect2114-1" class="st1" d="M-73.78,13.11v43.51v4.01v1.33h1.32h33.86h1.32v-1.33V17.39v-1.33h-1.32h-3.97v-2.94
	L-73.78,13.11z M-42.57,18.72h2.65V59.3h-31.21v-2.68h28.57L-42.57,18.72z M-67.3,21.38h18.52v5.34H-67.3V21.38z"/>
<rect x="-20.18" y="74.75" class="st2" width="32.79" height="45.63"/>
<rect x="-55.53" y="88.96" class="st2" width="18.25" height="5.5"/>
</svg>
