<?xml version="1.0" encoding="utf-8"?>
<!-- Generator: Adobe Illustrator 24.0.2, SVG Export Plug-In . SVG Version: 6.00 Build 0)  -->
<svg version="1.1" id="Layer_1" xmlns="http://www.w3.org/2000/svg" xmlns:xlink="http://www.w3.org/1999/xlink" x="0px" y="0px"
	 viewBox="0 0 188 200" style="enable-background:new 0 0 188 200;" xml:space="preserve">
<style type="text/css">
	.st0{fill:none;stroke:#000000;stroke-width:5;stroke-miterlimit:10;}
	.st1{fill:none;stroke:#000000;stroke-width:5;stroke-linejoin:round;stroke-miterlimit:10;}
</style>
<g>
	<g>
		<g>
			<path class="st0" d="M4,171.2V18.5c0-3.2,1.5-6.4,4.4-8.8c3-2.5,6.8-3.7,10.7-3.7H181v152.8H19.1c-3.9,0-7.7,1.2-10.6,3.7
				C5.5,164.9,4,168.1,4,171.2L4,171.2c0,3.2,1.5,6.4,4.4,8.8c2.9,2.4,6.8,3.7,10.6,3.7h41.4"/>
			<line class="st0" x1="19.1" y1="171.2" x2="49.2" y2="171.2"/>
			<line class="st0" x1="101.9" y1="171.2" x2="184.7" y2="171.2"/>
			<line class="st0" x1="30.4" y1="158.8" x2="30.4" y2="6"/>
			<polygon class="st0" points="90.6,196.2 75.5,193.1 60.5,196.2 60.5,171.2 90.6,171.2 			"/>
			<line class="st0" x1="90.6" y1="183.7" x2="184.7" y2="183.7"/>
		</g>
		<g>
			<path class="st1" d="M59.8,103.7L53,121.6l17.9-6.8l78.7-78.7c0.8-0.8,1.2-1.9,1.1-3.3c-0.1-1.3-0.8-2.6-1.7-3.5l-3.7-3.7
				c-1-1-2.2-1.6-3.5-1.7s-2.5,0.3-3.3,1.1L59.8,103.7z"/>
			<line class="st1" x1="145" y1="40.8" x2="133.8" y2="29.6"/>
			<line class="st1" x1="70.9" y1="114.8" x2="59.8" y2="103.7"/>
			<line class="st1" x1="138.8" y1="46.9" x2="127.7" y2="35.8"/>
		</g>
	</g>
</g>
<g>
	<path d="M36.3,150.2v-20.4h2.5v2.8c0.6-1.1,1.3-1.9,2.2-2.4c0.9-0.6,1.8-0.9,2.9-0.9c1.2,0,2.2,0.3,3,0.9s1.4,1.5,1.7,2.6
		c0.7-1.2,1.4-2.1,2.3-2.7c0.9-0.6,1.8-0.9,2.9-0.9c1.6,0,2.9,0.5,3.8,1.6s1.4,2.8,1.4,5.2v14h-2.8v-12.9c0-1.5-0.1-2.5-0.3-3.1
		s-0.6-1.1-1-1.4s-1-0.5-1.6-0.5c-1.2,0-2.2,0.5-3,1.5s-1.2,2.5-1.2,4.6v11.9h-2.8v-13.3c0-1.7-0.3-2.9-0.8-3.6
		c-0.5-0.7-1.2-1-2.1-1c-1.3,0-2.3,0.5-3.1,1.6s-1.1,3-1.1,5.7v10.6H36.3z"/>
	<path d="M63.1,150.2v-20.4h2.5v2.8c0.6-1.1,1.3-1.9,2.2-2.4c0.9-0.6,1.8-0.9,2.9-0.9c1.2,0,2.2,0.3,3,0.9s1.4,1.5,1.7,2.6
		c0.7-1.2,1.4-2.1,2.3-2.7c0.9-0.6,1.8-0.9,2.9-0.9c1.6,0,2.9,0.5,3.8,1.6s1.4,2.8,1.4,5.2v14H83v-12.9c0-1.5-0.1-2.5-0.3-3.1
		s-0.6-1.1-1-1.4s-1-0.5-1.6-0.5c-1.2,0-2.2,0.5-3,1.5s-1.2,2.5-1.2,4.6v11.9h-2.8v-13.3c0-1.7-0.3-2.9-0.8-3.6
		c-0.5-0.7-1.2-1-2.1-1c-1.3,0-2.3,0.5-3.1,1.6s-1.1,3-1.1,5.7v10.6H63.1z"/>
</g>
</svg>
