<?xml version="1.0" encoding="utf-8"?>
<!-- Generator: Adobe Illustrator 24.0.2, SVG Export Plug-In . SVG Version: 6.00 Build 0)  -->
<svg version="1.1" id="Layer_1" xmlns="http://www.w3.org/2000/svg" xmlns:xlink="http://www.w3.org/1999/xlink" x="0px" y="0px"
	 viewBox="0 0 188 200" style="enable-background:new 0 0 188 200;" xml:space="preserve">
<style type="text/css">
	.st0{fill:none;stroke:#000000;stroke-width:5;stroke-miterlimit:10;}
	.st1{fill:none;stroke:#000000;stroke-width:5;stroke-linejoin:round;stroke-miterlimit:10;}
</style>
<g>
	<g>
		<path class="st0" d="M80.1,169.3H45.3c-2.4,0-4.8-0.9-6.7-2.6c-1.9-1.7-2.8-4-2.8-6.3v-26.7H15.2c-1,0-2-0.4-2.6-1.3
			c-0.6-0.8-0.7-1.9-0.4-2.7l17.3-43.5v-5.9c0-37.7,32.5-68.3,72.6-68.3c40.1,0,72.6,30.6,72.6,68.3c0,6.9-1,13.6-3,19.9
			c-3.9,12.1-15.9,54.3-15.9,54.3l6.3,41.6"/>
		<line class="st0" x1="70.6" y1="169.3" x2="70.6" y2="199"/>
	</g>
	<path class="st1" d="M102.2,38.7C77.8,38.7,58,57.3,58,80.3v53.4L77.9,115c7,4.3,15.3,6.9,24.3,6.9c24.4,0,44.2-18.6,44.2-41.6
		S126.6,38.7,102.2,38.7z"/>
	<g>
		<line class="st1" x1="86.4" y1="133.7" x2="92.7" y2="133.7"/>
		<line class="st1" x1="99" y1="133.7" x2="105.4" y2="133.7"/>
		<line class="st1" x1="111.7" y1="133.7" x2="118" y2="133.7"/>
	</g>
</g>
<g>
	<path d="M82,107.3v-4.4c5.9-3,10-8.8,10-15.3c0-2.1-0.1-3.9-0.4-6.1h-9v-5.5h8.1c-0.4-2.6-1-6-1-9.5c0-10.3,7.1-17.1,16.8-17.1
		c4.6,0,7.7,1.1,9.6,2.2l-1.8,5.8c-1.6-0.9-4.1-1.8-7.8-1.8c-6.8,0-9.6,4.7-9.6,11c0,3.8,0.5,6.6,1.1,9.4h12.6v5.5H98.6
		c0.3,3.3,0.4,6.7-0.4,9.8c-1,3.8-3.1,6.9-6,9.5v0.2h26.1v6.4H82z"/>
</g>
</svg>
