<?xml version="1.0" encoding="utf-8"?>
<!-- Generator: Adobe Illustrator 24.0.2, SVG Export Plug-In . SVG Version: 6.00 Build 0)  -->
<svg version="1.1" id="Layer_1" xmlns="http://www.w3.org/2000/svg" xmlns:xlink="http://www.w3.org/1999/xlink" x="0px" y="0px"
	 viewBox="0 0 188 200" style="enable-background:new 0 0 188 200;" xml:space="preserve">
<style type="text/css">
	.st0{fill:none;stroke:#000000;stroke-width:5;stroke-miterlimit:10;}
</style>
<g>
	<g>
		<path class="st0" d="M3,185.4V15.6c0-3.2,1.2-6.4,3.7-8.9s5.8-3.7,9-3.7H156v25.2"/>
		<path class="st0" d="M121,172.8H15.8c-3.3,0-6.5,1.2-9,3.7C4.2,179,3,182.2,3,185.4l0,0c0,3.2,1.2,6.4,3.7,8.9s5.8,3.7,9,3.7H121"
			/>
		<line class="st0" x1="15.8" y1="185.4" x2="121" y2="185.4"/>
		<g>
			<line class="st0" x1="54" y1="94.2" x2="98.7" y2="94.2"/>
			<line class="st0" x1="54" y1="106.8" x2="105.1" y2="106.8"/>
			<line class="st0" x1="54" y1="81.6" x2="98.7" y2="81.6"/>
			<line class="st0" x1="70" y1="69" x2="98.7" y2="69"/>
		</g>
		<polyline class="st0" points="143.3,28.2 143.3,15.6 38.1,15.6 38.1,160.3 121,160.3 		"/>
		<line class="st0" x1="25.3" y1="172.8" x2="25.3" y2="3"/>
	</g>
	<g>
		<ellipse class="st0" cx="143.3" cy="81.6" rx="44.7" ry="44"/>
		<path class="st0" d="M156.1,122.5v62.9c0,3.2-1.2,6.4-3.7,8.9s-5.8,3.7-9,3.7l0,0c-3.3,0-6.5-1.2-9-3.7s-3.7-5.7-3.7-8.9v-62.9"/>
		<g>
			<line class="st0" x1="143.3" y1="135.1" x2="143.3" y2="141.4"/>
			<line class="st0" x1="143.3" y1="147.7" x2="143.3" y2="154"/>
			<line class="st0" x1="143.3" y1="160.3" x2="143.3" y2="166.5"/>
		</g>
		<ellipse class="st0" cx="143.3" cy="81.6" rx="31.9" ry="31.5"/>
		<g>
			<line class="st0" x1="143.3" y1="62.8" x2="143.3" y2="87.9"/>
			<line class="st0" x1="143.3" y1="94.2" x2="143.3" y2="100.5"/>
		</g>
	</g>
</g>
</svg>
